<svg width="24"
    height="24"
    viewBox="0 0 24 24"
    fill="none"
    xmlns="http://www.w3.org/2000/svg">
    <path
        fill-rule="evenodd"
        clip-rule="evenodd"
        d="M16.5 3C14.0147 3 12 5.01472 12 7.5C12 9.98528 14.0147 12 16.5 12C18.9853 12 21 9.98528 21 7.5C21 5.01472 18.9853 3 16.5 3ZM14 7.5C14 6.11929 15.1193 5 16.5 5C17.8807 5 19 6.11929 19 7.5C19 8.88071 17.8807 10 16.5 10C15.1193 10 14 8.88071 14 7.5Z"
        fill="#EC7E00" />
    <path
        d="M16.5001 13C12.09 13 9.5 16.5344 9.5 20H11.5C11.5 17.4656 13.3602 15 16.5001 15C19.6399 15 21.5 17.4656 21.5 20H23.5C23.5 16.5344 20.9102 13 16.5001 13Z"
        fill="#EC7E00" />
    <path
        d="M0.5 21C0.5 17.6209 2.82886 14 7.00007 14C7.99694 14 8.90916 14.2134 9.71594 14.5968L8.85749 16.4032C8.3241 16.1497 7.70575 16 7.00007 16C4.25048 16 2.5 18.3791 2.5 21H0.5Z"
        fill="#EC7E00" />
    <path
        fill-rule="evenodd"
        clip-rule="evenodd"
        d="M7 5C4.79086 5 3 6.79086 3 9C3 11.2091 4.79086 13 7 13C9.20914 13 11 11.2091 11 9C11 6.79086 9.20914 5 7 5ZM5 9C5 7.89543 5.89543 7 7 7C8.10457 7 9 7.89543 9 9C9 10.1046 8.10457 11 7 11C5.89543 11 5 10.1046 5 9Z"
        fill="#EC7E00" />
</svg>
