<svg width="16" height="21" viewBox="0 0 16 21" fill="none" xmlns="http://www.w3.org/2000/svg">
<path d="M7.99442 20.28C6.42642 20.28 5.10109 19.8507 4.01842 18.992C2.93576 18.1147 2.11442 16.92 1.55442 15.408C1.01309 13.8773 0.742422 12.1413 0.742422 10.2C0.742422 8.24 1.01309 6.504 1.55442 4.992C2.11442 3.46133 2.93576 2.26667 4.01842 1.408C5.10109 0.549332 6.42642 0.119999 7.99442 0.119999C9.56242 0.119999 10.8784 0.549332 11.9424 1.408C13.0251 2.26667 13.8464 3.46133 14.4064 4.992C14.9664 6.504 15.2464 8.24 15.2464 10.2C15.2464 12.1413 14.9664 13.8773 14.4064 15.408C13.8464 16.92 13.0251 18.1147 11.9424 18.992C10.8784 19.8507 9.56242 20.28 7.99442 20.28ZM7.99442 17.452C8.87176 17.452 9.61842 17.172 10.2344 16.612C10.8691 16.052 11.3544 15.2307 11.6904 14.148C12.0451 13.0653 12.2224 11.7493 12.2224 10.2C12.2224 8.632 12.0451 7.30667 11.6904 6.224C11.3544 5.14133 10.8691 4.32 10.2344 3.76C9.61842 3.2 8.87176 2.92 7.99442 2.92C7.11709 2.92 6.36109 3.2 5.72642 3.76C5.09176 4.32 4.60642 5.14133 4.27042 6.224C3.93442 7.30667 3.76642 8.632 3.76642 10.2C3.76642 11.7493 3.93442 13.0653 4.27042 14.148C4.60642 15.2307 5.09176 16.052 5.72642 16.612C6.36109 17.172 7.11709 17.452 7.99442 17.452Z" fill="#0E0E0E"/>
</svg>
