<svg width="9" height="20" viewBox="0 0 9 20" fill="none" xmlns="http://www.w3.org/2000/svg">
<path d="M6.69263 20C6.26329 20 5.90863 19.8693 5.62863 19.608C5.34863 19.328 5.20863 18.9827 5.20863 18.572V3.564L5.57263 4.068L2.96863 5.888C2.74463 6.07467 2.47396 6.168 2.15663 6.168C1.78329 6.168 1.44729 6.028 1.14863 5.748C0.868625 5.44933 0.728625 5.104 0.728625 4.712C0.728625 4.22667 0.971292 3.82533 1.45663 3.508L5.71263 0.679998C5.88063 0.567999 6.05796 0.493332 6.24463 0.456C6.44996 0.418666 6.63663 0.399999 6.80463 0.399999C7.23396 0.399999 7.57929 0.539999 7.84063 0.819998C8.10196 1.08133 8.23263 1.41733 8.23263 1.828V18.572C8.23263 18.9827 8.08329 19.328 7.78463 19.608C7.50463 19.8693 7.14063 20 6.69263 20Z" fill="#0E0E0E"/>
</svg>
