<svg width="14" height="20" viewBox="0 0 14 20" fill="none" xmlns="http://www.w3.org/2000/svg">
<path d="M12.0617 17.396C12.435 17.396 12.743 17.5267 12.9857 17.788C13.247 18.0307 13.3777 18.3387 13.3777 18.712C13.3777 19.0853 13.247 19.3933 12.9857 19.636C12.743 19.8787 12.435 20 12.0617 20H2.23366C1.82299 20 1.49632 19.8787 1.25366 19.636C1.01099 19.3933 0.889656 19.0667 0.889656 18.656C0.889656 18.2827 1.02032 17.9467 1.28166 17.648L7.52566 10.9C8.32832 10.0413 8.94432 9.192 9.37366 8.352C9.82166 7.512 10.0457 6.77467 10.0457 6.14C10.0457 5.11333 9.73766 4.28267 9.12166 3.648C8.50566 3.01333 7.69366 2.696 6.68566 2.696C6.25632 2.696 5.81766 2.79867 5.36966 3.004C4.94032 3.19067 4.52966 3.452 4.13766 3.788C3.76432 4.10533 3.43766 4.47867 3.15766 4.908C2.97099 5.16933 2.78432 5.33733 2.59766 5.412C2.41099 5.48667 2.23366 5.524 2.06566 5.524C1.71099 5.524 1.38432 5.40267 1.08566 5.16C0.805656 4.89867 0.665656 4.6 0.665656 4.264C0.665656 4.00267 0.749656 3.75067 0.917656 3.508C1.08566 3.26533 1.30032 3.01333 1.56166 2.752C1.97232 2.248 2.46699 1.8 3.04566 1.408C3.64299 0.997332 4.26832 0.679999 4.92166 0.456C5.57499 0.231999 6.21899 0.119999 6.85366 0.119999C8.08566 0.119999 9.14966 0.362666 10.0457 0.848C10.9603 1.33333 11.6603 2.01467 12.1457 2.892C12.6497 3.76933 12.9017 4.80533 12.9017 6C12.9017 7.008 12.5937 8.128 11.9777 9.36C11.3803 10.5733 10.5403 11.768 9.45766 12.944L5.11766 17.676L4.80966 17.396H12.0617Z" fill="#0E0E0E"/>
</svg>
