<svg width="13" height="21" viewBox="0 0 13 21" fill="none" xmlns="http://www.w3.org/2000/svg">
<path d="M1.94716 16.416C2.09649 16.416 2.25516 16.444 2.42316 16.5C2.59116 16.5373 2.77782 16.6307 2.98316 16.78C3.31916 17.0787 3.72049 17.3307 4.18716 17.536C4.67249 17.7227 5.22316 17.816 5.83916 17.816C6.52982 17.816 7.17382 17.6573 7.77116 17.34C8.36849 17.004 8.85382 16.5373 9.22716 15.94C9.60049 15.3427 9.78716 14.6333 9.78716 13.812C9.78716 12.972 9.60982 12.2907 9.25516 11.768C8.90049 11.2267 8.44316 10.8253 7.88316 10.564C7.32316 10.284 6.73516 10.144 6.11916 10.144C5.76449 10.144 5.46582 10.1813 5.22316 10.256C4.98049 10.312 4.74716 10.3773 4.52316 10.452C4.29916 10.508 4.05649 10.536 3.79516 10.536C3.44049 10.536 3.16049 10.4147 2.95516 10.172C2.74982 9.91067 2.64716 9.60267 2.64716 9.248C2.64716 9.024 2.69382 8.828 2.78716 8.66C2.88049 8.492 3.01116 8.30533 3.17916 8.1L8.35916 2.556L8.97516 3.116H1.55516C1.18182 3.116 0.86449 2.99467 0.603156 2.752C0.36049 2.49067 0.239156 2.17333 0.239156 1.8C0.239156 1.44533 0.36049 1.14667 0.603156 0.903999C0.86449 0.661332 1.18182 0.539999 1.55516 0.539999H10.4032C10.8885 0.539999 11.2432 0.679999 11.4672 0.96C11.7098 1.24 11.8312 1.56667 11.8312 1.94C11.8312 2.14533 11.7752 2.34133 11.6632 2.528C11.5698 2.71467 11.4485 2.892 11.2992 3.06L6.09116 8.66L5.39116 7.904C5.54049 7.82933 5.79249 7.75467 6.14716 7.68C6.50182 7.60533 6.79116 7.568 7.01516 7.568C8.07916 7.568 9.03116 7.83867 9.87116 8.38C10.7298 8.92133 11.3925 9.64933 11.8592 10.564C12.3445 11.46 12.5872 12.4773 12.5872 13.616C12.5872 14.9787 12.2792 16.164 11.6632 17.172C11.0472 18.1613 10.1885 18.9267 9.08716 19.468C8.00449 20.0093 6.75382 20.28 5.33516 20.28C4.62582 20.28 3.91649 20.1867 3.20716 20C2.51649 19.7947 1.91916 19.5053 1.41516 19.132C1.09782 18.9453 0.883156 18.7493 0.771156 18.544C0.659156 18.32 0.603156 18.1053 0.603156 17.9C0.603156 17.5453 0.72449 17.2093 0.967156 16.892C1.22849 16.5747 1.55516 16.416 1.94716 16.416Z" fill="#0E0E0E"/>
</svg>
