<svg width="16" height="20" viewBox="0 0 16 20" fill="none" xmlns="http://www.w3.org/2000/svg">
<path d="M10.739 20C10.347 20 10.0203 19.8693 9.75897 19.608C9.49764 19.328 9.36697 18.9827 9.36697 18.572V4.32L9.87097 4.488L3.82297 12.216L3.68297 11.852H13.875C14.2483 11.852 14.5563 11.9827 14.799 12.244C15.0603 12.4867 15.191 12.7947 15.191 13.168C15.191 13.5227 15.0603 13.8213 14.799 14.064C14.5563 14.3067 14.2483 14.428 13.875 14.428H1.75097C1.41497 14.428 1.09764 14.2973 0.798969 14.036C0.500302 13.756 0.350969 13.4293 0.350969 13.056C0.350969 12.7013 0.472302 12.384 0.714969 12.104L9.61897 0.96C9.74964 0.773332 9.91764 0.633332 10.123 0.539999C10.3283 0.446665 10.543 0.399999 10.767 0.399999C11.1776 0.399999 11.5136 0.539999 11.775 0.819998C12.0363 1.08133 12.167 1.41733 12.167 1.828V18.572C12.167 18.9827 12.027 19.328 11.747 19.608C11.467 19.8693 11.131 20 10.739 20Z" fill="#0E0E0E"/>
</svg>
