<svg width="14" height="21" viewBox="0 0 14 21" fill="none" xmlns="http://www.w3.org/2000/svg">
<path d="M5.76231 20.196C5.03431 20.196 4.27831 20.084 3.49431 19.86C2.72898 19.636 2.07565 19.3 1.53431 18.852C1.32898 18.684 1.17031 18.4693 1.05831 18.208C0.946313 17.9467 0.890313 17.6947 0.890313 17.452C0.890313 17.1907 1.00231 16.9387 1.22631 16.696C1.46898 16.4347 1.79565 16.304 2.20631 16.304C2.50498 16.304 2.85031 16.4533 3.24231 16.752C3.61565 16.9947 4.00765 17.2 4.41831 17.368C4.84765 17.536 5.28631 17.62 5.73431 17.62C6.70498 17.62 7.54498 17.4427 8.25431 17.088C8.96365 16.7333 9.50498 16.2387 9.87831 15.604C10.2703 14.9507 10.4663 14.1947 10.4663 13.336C10.4663 12.5333 10.289 11.852 9.93431 11.292C9.57965 10.7133 9.09431 10.2653 8.47831 9.948C7.88098 9.63067 7.20898 9.472 6.46231 9.472C5.84631 9.472 5.30498 9.57467 4.83831 9.78C4.37165 9.96667 3.95165 10.1627 3.57831 10.368C3.20498 10.5547 2.85965 10.648 2.54231 10.648C2.05698 10.648 1.69298 10.5453 1.45031 10.34C1.20765 10.116 1.04898 9.85467 0.974313 9.556C0.918313 9.23867 0.908979 8.94933 0.946313 8.688L1.92631 1.66C1.98231 1.34267 2.13165 1.08133 2.37431 0.875999C2.63565 0.651999 2.95298 0.539999 3.32631 0.539999H11.5303C11.9036 0.539999 12.2116 0.670665 12.4543 0.931998C12.7156 1.17467 12.8463 1.48267 12.8463 1.856C12.8463 2.22933 12.7156 2.53733 12.4543 2.78C12.2116 3.02267 11.9036 3.144 11.5303 3.144H4.02631L4.33431 2.892L3.43831 8.912L3.01831 8.072C3.18631 7.88533 3.46631 7.708 3.85831 7.54C4.26898 7.35333 4.72631 7.204 5.23031 7.092C5.75298 6.96133 6.27565 6.896 6.79831 6.896C8.03031 6.896 9.13165 7.176 10.1023 7.736C11.0916 8.27733 11.8663 9.03333 12.4263 10.004C12.9863 10.9747 13.2663 12.076 13.2663 13.308C13.2663 14.6893 12.9583 15.9027 12.3423 16.948C11.7263 17.9747 10.8583 18.7773 9.73831 19.356C8.61831 19.916 7.29298 20.196 5.76231 20.196Z" fill="#0E0E0E"/>
</svg>
