<svg width="14" height="21" viewBox="0 0 14 21" fill="none" xmlns="http://www.w3.org/2000/svg">
<path d="M7.33808 20.28C6.29274 20.28 5.35941 20.0747 4.53808 19.664C3.73541 19.2533 3.05408 18.6933 2.49408 17.984C1.95274 17.2747 1.53274 16.4813 1.23408 15.604C0.954078 14.708 0.814078 13.7933 0.814078 12.86C0.814078 12.132 0.898078 11.3013 1.06608 10.368C1.23408 9.416 1.51408 8.436 1.90608 7.428C2.29808 6.40133 2.81141 5.42133 3.44608 4.488C4.09941 3.55467 4.90208 2.71467 5.85408 1.968C6.82475 1.20267 7.97275 0.623999 9.29808 0.231999C9.48475 0.175999 9.66208 0.147999 9.83008 0.147999C10.2034 0.147999 10.5301 0.250666 10.8101 0.456C11.1087 0.642666 11.2581 0.987999 11.2581 1.492C11.2581 1.828 11.1461 2.12667 10.9221 2.388C10.6981 2.63067 10.3994 2.808 10.0261 2.92C9.35408 3.144 8.68208 3.48 8.01008 3.928C7.33808 4.376 6.71275 4.908 6.13408 5.524C5.55541 6.14 5.06075 6.83067 4.65008 7.596C4.25808 8.34267 3.96875 9.12667 3.78208 9.948L3.08208 10.06C3.36208 9.63067 3.71674 9.22 4.14608 8.828C4.59408 8.41733 5.11675 8.08133 5.71408 7.82C6.31141 7.54 6.99275 7.4 7.75808 7.4C8.52341 7.4 9.26075 7.568 9.97008 7.904C10.6794 8.24 11.3141 8.70667 11.8741 9.304C12.4527 9.90133 12.9007 10.592 13.2181 11.376C13.5541 12.16 13.7221 12.9907 13.7221 13.868C13.7221 15.0253 13.4327 16.0987 12.8541 17.088C12.2941 18.0587 11.5287 18.8333 10.5581 19.412C9.60608 19.9907 8.53275 20.28 7.33808 20.28ZM7.31008 17.676C8.00075 17.676 8.61675 17.5173 9.15808 17.2C9.69941 16.864 10.1287 16.4067 10.4461 15.828C10.7634 15.2493 10.9221 14.596 10.9221 13.868C10.9221 13.14 10.7727 12.4867 10.4741 11.908C10.1754 11.3293 9.75541 10.8627 9.21408 10.508C8.69141 10.1533 8.07541 9.976 7.36608 9.976C6.63808 9.976 5.99408 10.1533 5.43408 10.508C4.87408 10.8627 4.43541 11.3387 4.11808 11.936C3.80075 12.5147 3.64208 13.168 3.64208 13.896C3.64208 14.568 3.80075 15.2027 4.11808 15.8C4.43541 16.3787 4.86475 16.836 5.40608 17.172C5.96608 17.508 6.60075 17.676 7.31008 17.676Z" fill="#0E0E0E"/>
</svg>
