<svg width="13" height="21" viewBox="0 0 13 21" fill="none" xmlns="http://www.w3.org/2000/svg">
<path d="M3.88447 20.112C3.49247 20.112 3.14714 19.9907 2.84847 19.748C2.56847 19.4867 2.42847 19.16 2.42847 18.768C2.42847 18.5627 2.47514 18.348 2.56847 18.124L9.62447 2.528L9.93247 3.144H1.36447C0.991136 3.144 0.673802 3.02267 0.412469 2.78C0.169802 2.51867 0.0484688 2.20133 0.0484688 1.828C0.0484688 1.47333 0.169802 1.17467 0.412469 0.931998C0.673802 0.689333 0.991136 0.568 1.36447 0.568H11.3045C11.7151 0.568 12.0605 0.698666 12.3405 0.96C12.6391 1.20267 12.7885 1.52 12.7885 1.912C12.7885 2.136 12.7418 2.35067 12.6485 2.556L5.17247 19.216C5.06047 19.496 4.88314 19.72 4.64047 19.888C4.3978 20.0373 4.1458 20.112 3.88447 20.112Z" fill="#0E0E0E"/>
</svg>
