<svg width="14" height="21" viewBox="0 0 14 21" fill="none" xmlns="http://www.w3.org/2000/svg">
<path d="M9.98309 10.088L9.89909 9.584C10.5898 9.864 11.1964 10.256 11.7191 10.76C12.2418 11.2453 12.6431 11.796 12.9231 12.412C13.2218 13.028 13.3711 13.672 13.3711 14.344C13.3711 15.3893 13.0818 16.3507 12.5031 17.228C11.9431 18.0867 11.1778 18.7773 10.2071 19.3C9.25509 19.804 8.19109 20.056 7.01509 20.056C5.82043 20.056 4.73776 19.804 3.76709 19.3C2.81509 18.7773 2.04976 18.0867 1.47109 17.228C0.911094 16.3507 0.631094 15.3893 0.631094 14.344C0.631094 13.504 0.808427 12.7667 1.16309 12.132C1.51776 11.4973 1.96576 10.9653 2.50709 10.536C3.04843 10.1067 3.59909 9.752 4.15909 9.472L3.96309 10.088C3.49643 9.88267 3.03909 9.60267 2.59109 9.248C2.16176 8.87467 1.80709 8.408 1.52709 7.848C1.24709 7.288 1.10709 6.644 1.10709 5.916C1.10709 4.88933 1.36843 3.96533 1.89109 3.144C2.41376 2.304 3.12309 1.64133 4.01909 1.156C4.91509 0.651999 5.91376 0.399999 7.01509 0.399999C8.11643 0.399999 9.10576 0.651999 9.98309 1.156C10.8604 1.64133 11.5604 2.304 12.0831 3.144C12.6058 3.96533 12.8671 4.88933 12.8671 5.916C12.8671 6.7 12.7178 7.372 12.4191 7.932C12.1204 8.47333 11.7471 8.92133 11.2991 9.276C10.8511 9.63067 10.4124 9.90133 9.98309 10.088ZM3.90709 5.972C3.90709 6.55067 4.04709 7.064 4.32709 7.512C4.60709 7.96 4.98043 8.31467 5.44709 8.576C5.91376 8.83733 6.43643 8.968 7.01509 8.968C7.57509 8.968 8.08843 8.83733 8.55509 8.576C9.02176 8.31467 9.38576 7.96 9.64709 7.512C9.92709 7.064 10.0671 6.55067 10.0671 5.972C10.0671 5.09467 9.77776 4.376 9.19909 3.816C8.62043 3.256 7.89243 2.976 7.01509 2.976C6.10043 2.976 5.35376 3.256 4.77509 3.816C4.19643 4.376 3.90709 5.09467 3.90709 5.972ZM7.01509 17.48C8.02309 17.48 8.86309 17.1813 9.53509 16.584C10.2258 15.968 10.5711 15.212 10.5711 14.316C10.5711 13.7 10.4124 13.1493 10.0951 12.664C9.77776 12.1787 9.34843 11.796 8.80709 11.516C8.26576 11.236 7.66843 11.096 7.01509 11.096C6.36176 11.096 5.76443 11.236 5.22309 11.516C4.68176 11.796 4.25243 12.1787 3.93509 12.664C3.61776 13.1493 3.45909 13.7 3.45909 14.316C3.45909 15.212 3.79509 15.968 4.46709 16.584C5.13909 17.1813 5.98843 17.48 7.01509 17.48Z" fill="#0E0E0E"/>
</svg>
