<svg width="14" height="21" viewBox="0 0 14 21" fill="none" xmlns="http://www.w3.org/2000/svg">
<path d="M6.95198 0.0639997C7.99732 0.0639997 8.92132 0.269333 9.72399 0.679998C10.5453 1.09067 11.2267 1.65067 11.768 2.36C12.328 3.05067 12.748 3.844 13.028 4.74C13.3267 5.61733 13.476 6.532 13.476 7.484C13.476 8.212 13.392 9.052 13.224 10.004C13.056 10.9373 12.776 11.9173 12.384 12.944C11.992 13.9707 11.4693 14.96 10.816 15.912C10.1813 16.864 9.37865 17.7227 8.40798 18.488C7.45598 19.2347 6.31732 19.8133 4.99198 20.224C4.80532 20.2613 4.62798 20.28 4.45998 20.28C4.08665 20.28 3.75065 20.1773 3.45198 19.972C3.17198 19.7667 3.03198 19.4307 3.03198 18.964C3.03198 18.6093 3.14398 18.3107 3.36798 18.068C3.59198 17.8253 3.89065 17.648 4.26398 17.536C5.17865 17.2 6.07465 16.6867 6.95198 15.996C7.82932 15.2867 8.58532 14.456 9.21998 13.504C9.85465 12.5333 10.284 11.4973 10.508 10.396L11.208 10.284C10.928 10.676 10.5733 11.0773 10.144 11.488C9.71465 11.8987 9.20132 12.244 8.60398 12.524C8.00665 12.7853 7.31598 12.916 6.53198 12.916C5.31865 12.916 4.26398 12.6453 3.36798 12.104C2.47198 11.544 1.78132 10.7787 1.29598 9.808C0.810651 8.83733 0.567984 7.72667 0.567984 6.476C0.567984 5.31867 0.847984 4.25467 1.40798 3.284C1.98665 2.31333 2.75198 1.53867 3.70398 0.96C4.67465 0.362666 5.75732 0.0639997 6.95198 0.0639997ZM6.97998 2.64C6.28932 2.64 5.67332 2.808 5.13198 3.144C4.59065 3.48 4.16132 3.93733 3.84398 4.516C3.52665 5.09467 3.36798 5.748 3.36798 6.476C3.36798 7.204 3.50798 7.86667 3.78798 8.464C4.06798 9.04267 4.47865 9.5 5.01998 9.836C5.56132 10.172 6.19598 10.34 6.92398 10.34C7.65198 10.34 8.29598 10.172 8.85598 9.836C9.41598 9.48133 9.85465 9.00533 10.172 8.408C10.4893 7.81067 10.648 7.15733 10.648 6.448C10.648 5.73867 10.4893 5.104 10.172 4.544C9.85465 3.96533 9.42532 3.508 8.88399 3.172C8.34265 2.81733 7.70798 2.64 6.97998 2.64Z" fill="#0E0E0E"/>
</svg>
