<svg width="14" height="14" viewBox="0 0 14 14" fill="none" xmlns="http://www.w3.org/2000/svg">
    <path fill-rule="evenodd" clip-rule="evenodd"
        d="M4.66667 3.49996C4.66667 2.21129 5.71134 1.16663 7 1.16663C8.28867 1.16663 9.33334 2.21129 9.33334 3.49996C9.33334 4.5872 8.58972 5.50076 7.58334 5.75978V10.5H6.41667V5.75978C5.41029 5.50076 4.66667 4.5872 4.66667 3.49996ZM7 2.33329C6.35567 2.33329 5.83334 2.85563 5.83334 3.49996C5.83334 4.14429 6.35567 4.66663 7 4.66663C7.64433 4.66663 8.16667 4.14429 8.16667 3.49996C8.16667 2.85563 7.64433 2.33329 7 2.33329Z"
        fill="#8E8A95" />
    <path
        d="M5.39639 9.44565C4.42391 9.5871 3.67799 9.84435 3.25139 10.1306C3.03977 10.2726 2.95684 10.3881 2.92964 10.4497C2.91762 10.477 2.91649 10.4929 2.91668 10.5015C2.91687 10.5103 2.91879 10.5285 2.93395 10.5594C2.9683 10.6296 3.06374 10.7488 3.28267 10.8899C3.49622 11.0275 3.7938 11.164 4.17542 11.2841C4.93934 11.5245 5.92811 11.6639 6.96895 11.6666C8.00962 11.6693 9.00435 11.5352 9.77886 11.2983C10.1657 11.18 10.4702 11.0444 10.6913 10.9064C10.9177 10.7651 11.0221 10.643 11.062 10.5675C11.0798 10.5338 11.0827 10.5136 11.0832 10.5043C11.0837 10.4955 11.0831 10.481 11.0732 10.4565C11.0506 10.4003 10.9763 10.2882 10.7726 10.1469C10.361 9.86148 9.62802 9.60068 8.66078 9.45414L8.83555 8.30064C9.88207 8.45919 10.8161 8.75731 11.4375 9.18828C11.7503 9.40524 12.0178 9.67951 12.1552 10.0201C12.3018 10.3836 12.2762 10.7664 12.0936 11.1122C11.9226 11.4362 11.6335 11.6936 11.309 11.8961C10.9789 12.1021 10.5748 12.2749 10.1201 12.4139C9.21149 12.6918 8.09708 12.8362 6.96589 12.8332C5.83489 12.8303 4.72509 12.6801 3.82524 12.397C3.37497 12.2553 2.9754 12.0798 2.65077 11.8706C2.33152 11.6649 2.04774 11.4027 1.88606 11.0723C1.7131 10.7189 1.70485 10.3353 1.86235 9.97855C2.0099 9.64433 2.28317 9.3753 2.60134 9.16181C3.23432 8.73709 4.17601 8.44421 5.22846 8.29113L5.39639 9.44565Z"
        fill="#8E8A95" />
</svg>
