<svg width="32" height="32" viewBox="0 0 32 32" fill="none" xmlns="http://www.w3.org/2000/svg">
<g clip-path="url(#clip0_8019_37597)">
<path d="M25.3333 17.3333H6.66667V26.6666H25.3333V17.3333ZM25.3333 14.6666C25.3333 12.1913 24.35 9.81732 22.5997 8.06698C20.8493 6.31664 18.4754 5.33331 16 5.33331C13.5246 5.33331 11.1507 6.31664 9.40034 8.06698C7.65 9.81732 6.66667 12.1913 6.66667 14.6666H25.3333ZM8.50933 5.29064C10.6343 3.58806 13.2771 2.6623 16 2.66664C18.8333 2.66664 21.4373 3.64797 23.4907 5.29064L25.428 3.35331L27.3133 5.23864L25.376 7.17597C27.0786 9.30096 28.0043 11.9437 28 14.6666V28C28 28.3536 27.8595 28.6927 27.6095 28.9428C27.3594 29.1928 27.0203 29.3333 26.6667 29.3333H5.33333C4.97971 29.3333 4.64057 29.1928 4.39052 28.9428C4.14048 28.6927 4 28.3536 4 28V14.6666C4 11.8333 4.98133 9.22931 6.624 7.17597L4.68667 5.23997L6.572 3.35464L8.50933 5.29197V5.29064ZM12 12C11.6464 12 11.3072 11.8595 11.0572 11.6094C10.8071 11.3594 10.6667 11.0203 10.6667 10.6666C10.6667 10.313 10.8071 9.97388 11.0572 9.72383C11.3072 9.47378 11.6464 9.33331 12 9.33331C12.3536 9.33331 12.6928 9.47378 12.9428 9.72383C13.1929 9.97388 13.3333 10.313 13.3333 10.6666C13.3333 11.0203 13.1929 11.3594 12.9428 11.6094C12.6928 11.8595 12.3536 12 12 12ZM20 12C19.6464 12 19.3072 11.8595 19.0572 11.6094C18.8071 11.3594 18.6667 11.0203 18.6667 10.6666C18.6667 10.313 18.8071 9.97388 19.0572 9.72383C19.3072 9.47378 19.6464 9.33331 20 9.33331C20.3536 9.33331 20.6928 9.47378 20.9428 9.72383C21.1929 9.97388 21.3333 10.313 21.3333 10.6666C21.3333 11.0203 21.1929 11.3594 20.9428 11.6094C20.6928 11.8595 20.3536 12 20 12Z" fill="black"/>
</g>
<defs>
<clipPath id="clip0_8019_37597">
<rect width="32" height="32" fill="white"/>
</clipPath>
</defs>
</svg>
