<svg width="22" height="26" viewBox="0 0 22 26" fill="none" xmlns="http://www.w3.org/2000/svg">
<path d="M16.3796 0.358376C16.5531 1.83842 15.915 3.32515 14.9732 4.3951C14.0281 5.463 12.4818 6.29501 10.9656 6.18503C10.7608 4.73171 11.5252 3.22134 12.3994 2.27267C13.3752 1.20375 15.0204 0.409766 16.3796 0.358376Z" fill="white"/>
<path d="M21.2705 8.98986C20.9791 9.1599 18.3422 10.6985 18.3751 13.7934C18.4111 17.5298 21.7993 18.8297 21.9918 18.9036C21.9963 18.9053 22 18.9067 22 18.9067C21.9982 18.9117 21.9948 18.9219 21.9897 18.9371C21.9048 19.1901 21.3577 20.8214 20.1285 22.5031C19.0028 24.0437 17.8359 25.5762 15.9952 25.6076C15.1103 25.6234 14.5192 25.384 13.9045 25.1351C13.2613 24.8747 12.5924 24.6039 11.5345 24.6039C10.4259 24.6039 9.72585 24.8832 9.05156 25.1522C8.46736 25.3852 7.90247 25.6106 7.1079 25.6399C5.33198 25.7031 3.97835 23.9764 2.84328 22.4419C0.521521 19.3025 -1.25165 13.5698 1.13107 9.70168C2.31171 7.77968 4.42645 6.56275 6.72075 6.53089C7.70914 6.51458 8.66683 6.87045 9.50499 7.1819C10.1458 7.42003 10.7168 7.63219 11.1781 7.63219C11.5926 7.63219 12.1482 7.42709 12.7961 7.18795C13.8161 6.81145 15.0648 6.35056 16.351 6.47282C17.2313 6.50673 19.7046 6.8048 21.2922 8.97708C21.2879 8.97969 21.2806 8.98395 21.2705 8.98986Z" fill="white"/>
</svg>
