<svg width="32" height="32" viewBox="0 0 32 32" fill="none" xmlns="http://www.w3.org/2000/svg">
<g clip-path="url(#clip0_8019_37589)">
<path d="M20.9721 10.944C20.3414 10.8946 19.6641 11.0453 18.6267 11.4413C18.7147 11.408 17.6374 11.828 17.3361 11.9346C16.6667 12.168 16.1161 12.296 15.4987 12.296C14.8881 12.296 14.3254 12.1733 13.6774 11.956C13.4707 11.8853 13.2627 11.8093 13.0041 11.708C12.8947 11.6653 12.4947 11.5053 12.4067 11.472C11.5427 11.1333 11.0561 11.0053 10.6521 11.016C9.11608 11.036 7.66142 11.9226 6.81742 13.392C5.09475 16.384 6.04808 21.7906 8.56675 25.4333C9.90808 27.3586 10.6414 28.0466 10.9374 28.0373C11.2334 28.024 11.4507 27.9613 11.9814 27.7373L12.2041 27.6426C13.5441 27.0706 14.4841 26.8186 15.8987 26.8186C17.2601 26.8186 18.1694 27.0666 19.4561 27.6213L19.6801 27.7173C20.2107 27.944 20.4027 27.9946 20.7361 27.9866C21.2134 27.98 21.8014 27.4306 23.1067 25.5146C23.4641 24.9933 23.7801 24.444 24.0534 23.888C23.8738 23.74 23.6994 23.5857 23.5308 23.4253C21.8121 21.788 20.7494 19.58 20.7201 16.852C20.6914 14.8335 21.3548 12.8661 22.6001 11.2773C22.0774 11.0844 21.5285 10.972 20.9721 10.944ZM21.1787 8.2853C22.1227 8.3493 24.8267 8.6373 26.5868 11.2133C26.4427 11.2933 23.3547 13.0853 23.3867 16.8293C23.4347 21.3093 27.3067 22.7973 27.3547 22.8133C27.3228 22.9253 26.7307 24.9413 25.3067 27.0213C24.0747 28.8293 22.7947 30.6213 20.7787 30.6533C18.7947 30.7013 18.1547 29.4853 15.8987 29.4853C13.6267 29.4853 12.9227 30.6213 11.0507 30.7013C9.09875 30.7653 7.62675 28.7493 6.37875 26.9573C3.83475 23.2773 1.89875 16.5893 4.50675 12.0613C5.80275 9.8053 8.10675 8.3813 10.6187 8.3493C12.5227 8.3013 14.3307 9.6293 15.4987 9.6293C16.6507 9.6293 18.7147 8.0933 21.1787 8.2853ZM19.6587 5.8533C18.6187 7.1013 16.9227 8.0773 15.2747 7.9493C15.0507 6.2533 15.8827 4.4773 16.8427 3.3733C17.9147 2.1253 19.7067 1.1973 21.1947 1.1333C21.3867 2.8613 20.6987 4.6053 19.6587 5.8533Z" fill="black"/>
</g>
<defs>
<clipPath id="clip0_8019_37589">
<rect width="32" height="32" fill="white"/>
</clipPath>
</defs>
</svg>
