<svg width="24" height="24" viewBox="0 0 24 24" fill="none" xmlns="http://www.w3.org/2000/svg">
<path fill-rule="evenodd" clip-rule="evenodd" d="M8.29289 3.29289C8.48043 3.10536 8.73478 3 9 3H15C15.2652 3 15.5196 3.10536 15.7071 3.29289L17.4142 5H21C21.5523 5 22 5.44772 22 6V19C22 19.5523 21.5523 20 21 20H3C2.44772 20 2 19.5523 2 19V6C2 5.44772 2.44772 5 3 5H4V4H6V5H6.58579L8.29289 3.29289ZM9.41421 5L7.70711 6.70711C7.51957 6.89464 7.26522 7 7 7H4V18H20V7H17C16.7348 7 16.4804 6.89464 16.2929 6.70711L14.5858 5H9.41421Z" fill="white"/>
<path fill-rule="evenodd" clip-rule="evenodd" d="M12 14.5C13.3807 14.5 14.5 13.3807 14.5 12C14.5 10.6193 13.3807 9.5 12 9.5C10.6193 9.5 9.5 10.6193 9.5 12C9.5 13.3807 10.6193 14.5 12 14.5ZM12 16.5C14.4853 16.5 16.5 14.4853 16.5 12C16.5 9.51472 14.4853 7.5 12 7.5C9.51472 7.5 7.5 9.51472 7.5 12C7.5 14.4853 9.51472 16.5 12 16.5Z" fill="white"/>
</svg>
