<svg width="16" height="16" viewBox="0 0 16 16" fill="none" xmlns="http://www.w3.org/2000/svg">
    <path d="M3.99999 9.33329H6.99999V7.99996H3.99999V9.33329Z" fill="#FFC079" />
    <path fill-rule="evenodd" clip-rule="evenodd"
        d="M3.33333 2.66663C2.22876 2.66663 1.33333 3.56206 1.33333 4.66663V11.3333C1.33333 12.4379 2.22876 13.3333 3.33333 13.3333H12.6667C13.7712 13.3333 14.6667 12.4379 14.6667 11.3333V4.66663C14.6667 3.56206 13.7712 2.66663 12.6667 2.66663H3.33333ZM2.66666 4.66663C2.66666 4.29844 2.96514 3.99996 3.33333 3.99996H12.6667C13.0348 3.99996 13.3333 4.29844 13.3333 4.66663V5.33329L2.66666 5.33329L2.66666 4.66663ZM2.66666 6.66663L13.3333 6.66663V11.3333C13.3333 11.7015 13.0349 12 12.6667 12H3.33333C2.96514 12 2.66666 11.7015 2.66666 11.3333V6.66663Z"
        fill="#FFC079" />
</svg>
