<svg width="16" height="16" viewBox="0 0 16 16" fill="none" xmlns="http://www.w3.org/2000/svg">
    <path fill-rule="evenodd" clip-rule="evenodd"
        d="M5.71439 6.05241C6.32304 5.59593 7.13332 5.33329 8 5.33329C8.86668 5.33329 9.67697 5.59594 10.2856 6.05242C10.8945 6.50907 11.3333 7.1908 11.3333 7.99997C11.3333 8.80914 10.8945 9.49088 10.2856 9.94752C9.67697 10.404 8.86668 10.6666 8 10.6666C7.13332 10.6666 6.32304 10.404 5.71439 9.94751C5.10553 9.49087 4.66667 8.80913 4.66667 7.99996C4.66667 7.19079 5.10553 6.50905 5.71439 6.05241ZM8 9.3333C8.60609 9.3333 9.12913 9.14822 9.48562 8.88085C9.84191 8.61363 10 8.29537 10 7.99997C10 7.70457 9.84191 7.38631 9.48562 7.11909C9.12913 6.85172 8.60609 6.66664 8 6.66664C7.39392 6.66664 6.87088 6.85171 6.51439 7.11908C6.1581 7.3863 6 7.70456 6 7.99996C6 8.29536 6.1581 8.61362 6.51439 8.88084C6.87088 9.14821 7.39392 9.3333 8 9.3333Z"
        fill="#FFC079" />
    <path fill-rule="evenodd" clip-rule="evenodd"
        d="M1.33334 2.66663L14.6667 2.66664C15.0349 2.66664 15.3333 2.96511 15.3333 3.3333V12.6666C15.3333 12.8434 15.2631 13.013 15.1381 13.138C15.0131 13.2631 14.8435 13.3333 14.6667 13.3333L1.33334 13.3333C0.965149 13.3333 0.666672 13.0348 0.666672 12.6666V3.3333C0.666672 3.15648 0.736909 2.98691 0.861933 2.86189C0.986958 2.73687 1.15653 2.66663 1.33334 2.66663ZM11.3333 12C11.3333 11.6498 11.4023 11.303 11.5363 10.9795C11.6703 10.6559 11.8668 10.362 12.1144 10.1144C12.362 9.86673 12.656 9.6703 12.9795 9.53629C13.3031 9.40228 13.6498 9.3333 14 9.3333V6.66664C13.6498 6.66664 13.3031 6.59766 12.9795 6.46365C12.656 6.32964 12.362 6.13321 12.1144 5.88559C11.8668 5.63797 11.6703 5.344 11.5363 5.02046C11.4023 4.69692 11.3333 4.35016 11.3333 3.99997L4.66667 3.99996C4.66667 4.35015 4.5977 4.69691 4.46368 5.02045C4.32967 5.34398 4.13324 5.63796 3.88562 5.88558C3.638 6.1332 3.34403 6.32963 3.02049 6.46364C2.69696 6.59765 2.3502 6.66663 2 6.66663V9.33329C2.3502 9.33329 2.69696 9.40227 3.02049 9.53628C3.34403 9.67029 3.638 9.86672 3.88562 10.1143C4.13324 10.362 4.32967 10.6559 4.46368 10.9795C4.5977 11.303 4.66667 11.6498 4.66667 12L11.3333 12ZM2 5.33329C2.1751 5.33329 2.34848 5.29881 2.51025 5.2318C2.67202 5.16479 2.819 5.06658 2.94281 4.94277C3.06663 4.81896 3.16484 4.67197 3.23184 4.5102C3.29885 4.34844 3.33334 4.17506 3.33334 3.99996H2.00001L2 5.33329ZM2.00001 12L2 10.6666C2.1751 10.6666 2.34848 10.7011 2.51025 10.7681C2.67202 10.8351 2.819 10.9333 2.94281 11.0572C3.06663 11.181 3.16484 11.3279 3.23184 11.4897C3.29885 11.6515 3.33334 11.8249 3.33334 12L2.00001 12ZM14 10.6666C13.8249 10.6666 13.6515 10.7011 13.4898 10.7681C13.328 10.8351 13.181 10.9333 13.0572 11.0572C12.9334 11.181 12.8352 11.328 12.7682 11.4897C12.7012 11.6515 12.6667 11.8249 12.6667 12H14L14 10.6666ZM14 3.99997L14 5.3333C13.8249 5.3333 13.6515 5.29882 13.4898 5.23181C13.328 5.1648 13.181 5.06659 13.0572 4.94278C12.9334 4.81897 12.8352 4.67198 12.7682 4.51022C12.7012 4.34845 12.6667 4.17507 12.6667 3.99997L14 3.99997Z"
        fill="#FFC079" />
</svg>
