<svg width="24" height="24" viewBox="0 0 24 24" fill="none" xmlns="http://www.w3.org/2000/svg">
    <path
        d="M11.7071 15.2071L16.7071 10.2071L15.2928 8.79285L11 13.0857L8.20706 10.2928L6.79285 11.7071L10.2928 15.2071C10.6834 15.5976 11.3165 15.5976 11.7071 15.2071Z"
        fill="#AAABAD" />
    <path fill-rule="evenodd" clip-rule="evenodd"
        d="M12 2C6.47715 2 2 6.47715 2 12C2 17.5228 6.47715 22 12 22C17.5228 22 22 17.5228 22 12C22 6.47715 17.5228 2 12 2ZM4 12C4 7.58172 7.58172 4 12 4C16.4183 4 20 7.58172 20 12C20 16.4183 16.4183 20 12 20C7.58172 20 4 16.4183 4 12Z"
        fill="#AAABAD" />
</svg>
