<svg width="14" height="14" viewBox="0 0 14 14" fill="none" xmlns="http://www.w3.org/2000/svg">
<path d="M6.9999 1.1665C7.23288 1.1665 7.44352 1.30513 7.53567 1.51911L8.97589 4.86346L12.6016 5.19973C12.8336 5.22125 13.0305 5.37874 13.1025 5.60031C13.1745 5.82189 13.1078 6.06505 12.9327 6.21882L10.1971 8.62201L10.9977 12.1742C11.0489 12.4015 10.96 12.6374 10.7715 12.7744C10.583 12.9113 10.3311 12.923 10.1308 12.804L6.9999 10.9449L3.86898 12.804C3.66865 12.923 3.41676 12.9113 3.22828 12.7744C3.03979 12.6374 2.95087 12.4015 3.00209 12.1742L3.80268 8.62201L1.06708 6.21882C0.892046 6.06505 0.825293 5.82189 0.897287 5.60031C0.969282 5.37874 1.16622 5.22125 1.3982 5.19973L5.02391 4.86346L6.46414 1.51911C6.55628 1.30513 6.76692 1.1665 6.9999 1.1665Z" fill="#FFBB3D"/>
</svg>
