<svg width="14" height="14" viewBox="0 0 14 14" fill="none" xmlns="http://www.w3.org/2000/svg">
<path d="M7.58333 6.75846V4.08342H6.41666V6.75846C6.41666 7.06788 6.53958 7.36462 6.75837 7.58342L8.62919 9.45423L9.45414 8.62927L7.58333 6.75846Z" fill="#8E8A95"/>
<path fill-rule="evenodd" clip-rule="evenodd" d="M7 12.8334C3.77834 12.8334 1.16666 10.2217 1.16666 7.00008C1.16666 3.77842 3.77834 1.16675 7 1.16675C10.2217 1.16675 12.8333 3.77842 12.8333 7.00008C12.8333 10.2217 10.2217 12.8334 7 12.8334ZM7 11.6667C9.57733 11.6667 11.6667 9.57741 11.6667 7.00008C11.6667 4.42275 9.57733 2.33341 7 2.33341C4.42267 2.33341 2.33333 4.42275 2.33333 7.00008C2.33333 9.57741 4.42267 11.6667 7 11.6667Z" fill="#8E8A95"/>
</svg>
