<svg width="24" height="25" viewBox="0 0 24 25" fill="none" xmlns="http://www.w3.org/2000/svg">
<path d="M14 8.5C14 9.60457 13.1046 10.5 12 10.5C10.8954 10.5 10 9.60457 10 8.5C10 7.39543 10.8954 6.5 12 6.5C13.1046 6.5 14 7.39543 14 8.5Z" fill="#FF9416"/>
<path fill-rule="evenodd" clip-rule="evenodd" d="M11.9925 2.5C13.3706 2.49827 14.7073 2.97099 15.7779 3.83872C16.8485 4.70645 17.5878 5.91629 17.8715 7.26489C18.1552 8.61349 17.966 10.0186 17.3357 11.2442C16.8069 12.2724 15.99 13.119 15 13.6915V16.5H16C16.5523 16.5 17 16.9477 17 17.5V21.5C17 22.0523 16.5523 22.5 16 22.5H10C9.44772 22.5 9.00001 22.0523 9.00001 21.5V13.6997C8.00887 13.1273 7.20035 12.28 6.67125 11.2576C6.03787 10.0337 5.84513 8.62899 6.12541 7.27968C6.4057 5.93037 7.14194 4.71868 8.21038 3.84825C9.27882 2.97783 10.6143 2.50174 11.9925 2.5ZM15 18.5H13V12.4255L13.5983 12.163C14.443 11.7924 15.1386 11.1432 15.5571 10.3295C15.9773 9.51243 16.1035 8.57566 15.9143 7.67659C15.7252 6.77753 15.2324 5.97097 14.5186 5.39248C13.8048 4.814 12.9137 4.49885 11.995 4.5C11.0762 4.50116 10.1859 4.81855 9.47359 5.39883C8.7613 5.97912 8.27047 6.78691 8.08361 7.68645C7.89675 8.586 8.02525 9.52244 8.4475 10.3384C8.87077 11.1563 9.55916 11.8031 10.3994 12.1692L11 12.4308V20.5H15V18.5Z" fill="#FF9416"/>
</svg>
