<svg width="24" height="24" viewBox="0 0 24 24" fill="none" xmlns="http://www.w3.org/2000/svg">
<path fill-rule="evenodd" clip-rule="evenodd" d="M11.5098 2.12842C11.8142 1.95719 12.1859 1.95719 12.4903 2.12843L20.4903 6.62843C20.8051 6.80554 21 7.13873 21 7.5V16.5C21 16.8613 20.8051 17.1945 20.4903 17.3716L12.4903 21.8716C12.1859 22.0428 11.8142 22.0428 11.5098 21.8716L3.50974 17.3716C3.19486 17.1945 3 16.8613 3 16.5V7.5C3 7.13873 3.19486 6.80554 3.50974 6.62842L11.5098 2.12842ZM5 15.9152V9.20982L11 12.5848V19.2901L5 15.9152ZM13 19.2902L19 15.9152V9.20986L13 12.5849V19.2902ZM12 4.14735L17.9603 7.5L12.0001 10.8526L6.03975 7.49999L12 4.14735Z" fill="#DEDEDE"/>
<path d="M11.79 20.5817L19.7698 16.0473C19.8483 16.0027 19.9374 15.9802 20.0277 15.9821C20.4059 15.9904 20.6383 16.3994 20.4518 16.7285C20.4073 16.8071 20.3423 16.8721 20.2638 16.9167L12.2841 21.4511C12.1265 21.5407 11.9328 21.5379 11.7778 21.4439C11.6295 21.354 11.5385 21.1937 11.5371 21.0203C11.5357 20.8391 11.6324 20.6712 11.79 20.5817Z" stroke="#005A91" stroke-linejoin="round"/>
</svg>
