<svg width="24" height="24" viewBox="0 0 24 24" fill="none" xmlns="http://www.w3.org/2000/svg">
<path fill-rule="evenodd" clip-rule="evenodd" d="M11.5098 2.12842C11.8142 1.95719 12.1859 1.95719 12.4903 2.12843L20.4903 6.62843C20.8051 6.80554 21 7.13873 21 7.5V16.5C21 16.8613 20.8051 17.1945 20.4903 17.3716L12.4903 21.8716C12.1859 22.0428 11.8142 22.0428 11.5098 21.8716L3.50974 17.3716C3.19486 17.1945 3 16.8613 3 16.5V7.5C3 7.13873 3.19486 6.80554 3.50974 6.62842L11.5098 2.12842ZM5 15.9152V9.20982L11 12.5848V19.2901L5 15.9152ZM13 19.2902L19 15.9152V9.20986L13 12.5849V19.2902ZM12 4.14735L17.9603 7.5L12.0001 10.8526L6.03975 7.49999L12 4.14735Z" fill="#DEDEDE"/>
<path d="M11.5 20.9514V11.9788C11.5 11.89 11.5237 11.8027 11.5685 11.7261C11.7617 11.3963 12.2383 11.3963 12.4315 11.7261C12.4763 11.8027 12.5 11.89 12.5 11.9788V20.9514C12.5 21.237 12.2818 21.4735 12 21.4989C11.7182 21.4735 11.5 21.237 11.5 20.9514Z" stroke="#005A91" stroke-linejoin="round"/>
</svg>
