<svg width="24" height="24" viewBox="0 0 24 24" fill="none" xmlns="http://www.w3.org/2000/svg">
<path fill-rule="evenodd" clip-rule="evenodd" d="M11.5098 2.12842C11.8142 1.95719 12.1859 1.95719 12.4903 2.12843L20.4903 6.62843C20.8051 6.80554 21 7.13873 21 7.5V16.5C21 16.8613 20.8051 17.1945 20.4903 17.3716L12.4903 21.8716C12.1859 22.0428 11.8142 22.0428 11.5098 21.8716L3.50974 17.3716C3.19486 17.1945 3 16.8613 3 16.5V7.5C3 7.13873 3.19486 6.80554 3.50974 6.62842L11.5098 2.12842ZM5 15.9152V9.20982L11 12.5848V19.2901L5 15.9152ZM13 19.2902L19 15.9152V9.20986L13 12.5849V19.2902ZM12 4.14735L17.9603 7.5L12.0001 10.8526L6.03975 7.49999L12 4.14735Z" fill="#DEDEDE"/>
<path d="M11.6968 21.4212L3.8142 16.9786C3.73697 16.9351 3.673 16.8714 3.62914 16.7943C3.44622 16.473 3.67185 16.0727 4.04144 16.0628C4.13007 16.0604 4.21768 16.0821 4.29492 16.1257L12.1775 20.5683C12.3323 20.6556 12.4277 20.8199 12.4267 20.9976C12.4257 21.1669 12.3373 21.3236 12.193 21.4121C12.0415 21.505 11.8516 21.5085 11.6968 21.4212Z" stroke="#005A91" stroke-linejoin="round"/>
</svg>
