<svg width="16" height="16" viewBox="0 0 16 16" fill="none" xmlns="http://www.w3.org/2000/svg">
<path fill-rule="evenodd" clip-rule="evenodd" d="M7.54095 14.0403C8.02332 14.8844 9.08113 15.2047 9.95074 14.7699C10.3053 14.5927 10.5927 14.3052 10.77 13.9507L10.9123 13.6661C11.2097 13.0712 11.2846 12.3895 11.1233 11.7442L10.8539 10.6666H12.6973C14.1122 10.6666 15.0797 9.23755 14.5542 7.92382L12.9542 3.92382C12.6505 3.1645 11.9151 2.6666 11.0973 2.6666H6.66667C6.53505 2.6666 6.40638 2.70556 6.29687 2.77857L5.33333 3.42093V3.33325C5.33333 2.96506 5.03485 2.66659 4.66666 2.66659H1.99999C1.63181 2.66659 1.33333 2.96506 1.33333 3.33325V10.6666C1.33333 11.0348 1.63181 11.3333 1.99999 11.3333H4.66666C5.03485 11.3333 5.33332 11.0348 5.33333 10.6666H5.61312L7.54095 14.0403ZM6.86852 3.99993L5.33333 5.02339V9.33327H6C6.23924 9.33327 6.46014 9.46146 6.57883 9.66917L8.69861 13.3788C8.82989 13.6085 9.11778 13.6957 9.35445 13.5774C9.45094 13.5291 9.52918 13.4509 9.57742 13.3544L9.71971 13.0698C9.87483 12.7596 9.91385 12.4041 9.82973 12.0676L9.47948 10.6666H8.66666V9.33325H10C10 9.33325 9.99999 9.33325 10 9.33325L12.6973 9.33327C13.1689 9.33327 13.4914 8.85692 13.3163 8.41901L11.7163 4.41901C11.615 4.1659 11.3699 3.99993 11.0973 3.99993H6.86852ZM2.66666 9.99992V3.99992H3.99999V9.99992H2.66666Z" fill="#D84A5B"/>
</svg>
