<svg width="49" height="48" viewBox="0 0 49 48" fill="none" xmlns="http://www.w3.org/2000/svg">
<path fill-rule="evenodd" clip-rule="evenodd" d="M23.1229 42.1206C24.57 44.6531 27.7434 45.6139 30.3522 44.3095C31.4158 43.7777 32.2782 42.9153 32.81 41.8518L33.2368 40.998C34.1292 39.2133 34.3537 37.1682 33.8698 35.2323L33.0616 31.9996H38.5919C42.8367 31.9996 45.7392 27.7124 44.1628 23.7712L39.3628 11.7712C38.4516 9.49326 36.2453 7.99955 33.7919 7.99955H20.5C20.1052 7.99955 19.7192 8.11643 19.3906 8.33545L16.5 10.2625V9.99951C16.5 8.89494 15.6046 7.99951 14.5 7.99951H6.5C5.39543 7.99951 4.5 8.89494 4.5 9.99951V31.9995C4.5 33.1041 5.39543 33.9995 6.5 33.9995H14.5C15.6046 33.9995 16.5 33.1041 16.5 31.9996H17.3394L23.1229 42.1206ZM21.1056 11.9996L16.5 15.0699V27.9996H18.5C19.2177 27.9996 19.8804 28.3841 20.2365 29.0073L26.5958 40.1361C26.9897 40.8253 27.8534 41.0868 28.5634 40.7318C28.8528 40.5871 29.0876 40.3524 29.2323 40.0629L29.6591 39.2092C30.1245 38.2785 30.2416 37.212 29.9892 36.2025L28.9385 31.9995H26.5V27.9995H30.5C30.5 27.9995 30.5 27.9995 30.5 27.9995L38.5919 27.9996C40.0068 27.9996 40.9743 26.5705 40.4488 25.2568L35.6488 13.2568C35.3451 12.4975 34.6097 11.9996 33.7919 11.9996H21.1056ZM8.5 29.9995V11.9995H12.5V29.9995H8.5Z" fill="#D84A5B"/>
</svg>
