<svg width="24" height="25" viewBox="0 0 24 25" fill="none" xmlns="http://www.w3.org/2000/svg">
<path fill-rule="evenodd" clip-rule="evenodd" d="M4 3.5C4 2.94772 4.44772 2.5 5 2.5H19C19.5523 2.5 20 2.94772 20 3.5V21.5C20 22.0523 19.5523 22.5 19 22.5H10V20.5H18V4.5H6V9.5H4V3.5Z" fill="#FF9416"/>
<path fill-rule="evenodd" clip-rule="evenodd" d="M8.29289 9.79289C8.68342 9.40237 9.31658 9.40237 9.70711 9.79289L12.7071 12.7929C13.0976 13.1834 13.0976 13.8166 12.7071 14.2071L4.70711 22.2071C4.51957 22.3946 4.26522 22.5 4 22.5H1C0.447715 22.5 0 22.0523 0 21.5V18.5C0 18.2348 0.105357 17.9804 0.292893 17.7929L8.29289 9.79289ZM2 18.9142V20.5H3.58579L10.5858 13.5L9 11.9142L2 18.9142Z" fill="#FF9416"/>
</svg>
