<svg width="24" height="24" viewBox="0 0 24 24" fill="none" xmlns="http://www.w3.org/2000/svg">
    <path
        d="M16.7071 3.29289L20.7071 7.29289C21.0976 7.68342 21.0976 8.31658 20.7071 8.70711L9.70705 19.7071C9.56745 19.8467 9.38965 19.9419 9.19606 19.9806L4.19606 20.9806C3.49634 21.1205 2.87942 20.5036 3.01936 19.8039L4.01936 14.8039C4.05808 14.6103 4.15324 14.4325 4.29284 14.2929L15.2928 3.29289C15.6834 2.90237 16.3165 2.90237 16.7071 3.29289ZM13.4994 7.914L5.92115 15.493L5.2747 18.7252L8.50693 18.0788L16.0854 10.5L13.4994 7.914ZM15.9999 5.41421L14.9144 6.5L17.4994 9.085L18.5857 8L15.9999 5.41421Z"
        fill="white" />
</svg>
