<svg width="24" height="24" viewBox="0 0 24 24" fill="none" xmlns="http://www.w3.org/2000/svg">
<path fill-rule="evenodd" clip-rule="evenodd" d="M4 2H19V4H6.85078L9.62469 6.21913C9.86191 6.4089 10 6.69622 10 7V18H19V20H10V21C10 21.3844 9.77965 21.7348 9.43319 21.9013C9.08672 22.0678 8.67548 22.021 8.37531 21.7809L3.37531 17.7809C3.13809 17.5911 3 17.3038 3 17V3C3 2.44772 3.44772 2 4 2ZM8 7.48062L5 5.08062V16.5194L8 18.9194V7.48062Z" fill="#2B2D33"/>
<path d="M20.7071 11.7071C20.8946 11.5195 21 11.2652 21 11C21 10.7347 20.8946 10.4804 20.7071 10.2928L16.7071 6.29285L15.2929 7.70706L17.5858 9.99995L12 10V12L17.5858 12L15.2929 14.2928L16.7071 15.7071L20.7071 11.7071Z" fill="#2B2D33"/>
</svg>
