<svg width="18" height="18" viewBox="0 0 18 18" fill="none" xmlns="http://www.w3.org/2000/svg">
    <path fill-rule="evenodd" clip-rule="evenodd"
        d="M9 11.25C7.75736 11.25 6.75 10.2426 6.75 9C6.75 7.75736 7.75736 6.75 9 6.75C10.2426 6.75 11.25 7.75736 11.25 9C11.25 10.2426 10.2426 11.25 9 11.25ZM9 9.75C9.41421 9.75 9.75 9.41421 9.75 9C9.75 8.58579 9.41421 8.25 9 8.25C8.58579 8.25 8.25 8.58579 8.25 9C8.25 9.41421 8.58579 9.75 9 9.75Z"
        fill="#2B2D33" />
    <path fill-rule="evenodd" clip-rule="evenodd"
        d="M9 14.25C6.51373 14.25 4.07263 12.6226 1.65392 9.45518C1.44869 9.18643 1.44869 8.81357 1.65392 8.54482C4.07263 5.3774 6.51373 3.75 9 3.75C11.4863 3.75 13.9274 5.3774 16.3461 8.54482C16.5513 8.81357 16.5513 9.18643 16.3461 9.45518C13.9274 12.6226 11.4863 14.25 9 14.25ZM9 12.75C10.8255 12.75 12.7643 11.5246 14.7971 9C12.7643 6.47543 10.8255 5.25 9 5.25C7.17451 5.25 5.23572 6.47543 3.20287 9C5.23572 11.5246 7.17451 12.75 9 12.75Z"
        fill="#2B2D33" />
</svg>
