<svg width="26" height="26" viewBox="0 0 26 26" fill="none" xmlns="http://www.w3.org/2000/svg">
    <path fill-rule="evenodd" clip-rule="evenodd"
        d="M9.55288 4.33509C11.0027 2.94663 12.9689 2.16663 15.0192 2.16663C17.0696 2.16663 19.0359 2.94666 20.4857 4.33513C21.9355 5.7236 22.75 7.60677 22.75 9.57036C22.75 11.5339 21.9357 13.417 20.4858 14.8055L12.6766 22.2844C11.641 23.2762 10.2365 23.8333 8.77198 23.8333C7.30746 23.8333 5.90292 23.2761 4.86735 22.2844C3.83178 21.2926 3.25 19.9475 3.25 18.5449C3.25 17.1423 3.83175 15.7973 4.86732 14.8055L12.6766 7.32665C13.298 6.73154 14.1406 6.39739 15.0193 6.39739C15.898 6.39739 16.7407 6.73169 17.362 7.32675C17.9834 7.92181 18.3325 8.72888 18.3325 9.57042C18.3325 10.4119 17.9835 11.2189 17.3621 11.814L9.55288 19.2929L7.99102 17.7971L15.8003 10.3182C16.0074 10.1199 16.1237 9.851 16.1237 9.57042C16.1237 9.28991 16.0073 9.02088 15.8002 8.82253C15.5931 8.62418 15.3122 8.51274 15.0193 8.51274C14.7263 8.51274 14.4455 8.62413 14.2384 8.82243L6.42917 16.3013C5.80783 16.8964 5.45879 17.7034 5.45879 18.5449C5.45879 19.3865 5.80786 20.1935 6.4292 20.7886C7.05055 21.3836 7.89327 21.7179 8.77198 21.7179C9.65074 21.7179 10.4934 21.3837 11.1147 20.7887L18.924 13.3098C19.9595 12.318 20.5412 10.973 20.5412 9.57036C20.5412 8.16779 19.9594 6.82267 18.9239 5.83091C17.8883 4.83915 16.4837 4.28198 15.0192 4.28198C13.5547 4.28198 12.1503 4.8391 11.1147 5.83087L4.86732 11.814L3.30547 10.3182L9.55288 4.33509Z"
        fill="#EC7E00" />
</svg>
