<svg width="29" height="32" viewBox="0 0 29 32" fill="none" xmlns="http://www.w3.org/2000/svg">
<path d="M22.5006 2.2752C19.7774 0.455584 16.4855 -0.311973 13.2383 0.115527C9.99112 0.543027 7.01007 2.13643 4.85058 4.59886C2.69108 7.06129 1.50041 10.2248 1.50041 13.5C1.50041 14.3285 2.17198 15 3.00041 15C3.82884 15 4.50041 14.3285 4.50041 13.5C4.50041 10.9526 5.42649 8.49213 7.1061 6.5769C8.78571 4.66167 11.1043 3.42236 13.6299 3.08986C16.1555 2.75736 18.7158 3.35435 20.8339 4.7696C22.952 6.18486 24.4833 8.32185 25.1426 10.7824C25.357 11.5826 26.1796 12.0575 26.9798 11.8431C27.7799 11.6287 28.2548 10.8062 28.0404 10.006C27.1927 6.84237 25.2239 4.09481 22.5006 2.2752Z" fill="#0E0E0E"/>
<path d="M16.5004 13.5C16.5004 12.6716 15.8288 12 15.0004 12C14.172 12 13.5004 12.6716 13.5004 13.5V13.9377C13.5004 16.7785 11.8954 19.3755 9.35452 20.6459L5.3296 22.6584C4.58863 23.0288 4.2883 23.9299 4.65878 24.6708C5.02926 25.4118 5.93027 25.7121 6.67124 25.3416L10.6962 23.3292C14.2534 21.5506 16.5004 17.9148 16.5004 13.9377V13.5Z" fill="#0E0E0E"/>
<path d="M27.247 14.2704C28.0642 14.4066 28.6162 15.1794 28.48 15.9966L28.1187 18.164C27.3242 22.9316 24.6456 27.1793 20.686 29.951L18.8606 31.2288C18.1819 31.7039 17.2466 31.5388 16.7716 30.8602C16.2965 30.1815 16.4615 29.2462 17.1402 28.7711L18.9656 27.4933C22.2653 25.1836 24.4974 21.6438 25.1596 17.6709L25.5208 15.5034C25.657 14.6862 26.4298 14.1342 27.247 14.2704Z" fill="#0E0E0E"/>
<path d="M12.7504 9.60289C13.4345 9.20793 14.2105 9 15.0004 9C15.7903 9 16.5663 9.20793 17.2504 9.60289C17.9345 9.99784 18.5026 10.5659 18.8975 11.25C19.1535 11.6934 19.2781 11.9413 19.3597 12.2123C19.4393 12.4764 19.5004 12.8421 19.5004 13.5C19.5004 17.0593 18.3041 20.441 15.8387 22.7416C14.6377 23.8624 13.3226 24.9607 12.0604 25.7698C10.7499 26.6099 9.70613 27 9.0004 27C8.17197 27 7.5004 27.6716 7.5004 28.5C7.5004 29.3284 8.17197 30 9.0004 30C10.5986 30 12.2519 29.2105 13.6794 28.2954C15.1552 27.3494 16.619 26.1169 17.8855 24.935C21.089 21.9456 22.5004 17.6945 22.5004 13.5C22.5004 12.6579 22.4229 11.9797 22.2322 11.3468C22.0436 10.7208 21.7662 10.2187 21.4956 9.75C20.8373 8.60986 19.8905 7.66307 18.7504 7.00481C17.6103 6.34655 16.3169 6 15.0004 6C13.6839 6 12.3905 6.34655 11.2504 7.00481C10.1103 7.66307 9.16347 8.60986 8.50521 9.75C7.84695 10.8901 7.5004 12.1835 7.5004 13.5C7.5004 14.1728 7.38052 14.8417 7.14913 15.3618C6.92161 15.8732 6.63538 16.1445 6.33086 16.2655L1.69674 18.1059C0.926813 18.4117 0.550542 19.2837 0.856319 20.0537C1.1621 20.8236 2.03413 21.1999 2.80406 20.8941L7.43818 19.0536C8.67271 18.5634 9.44442 17.5829 9.89007 16.5813C10.3319 15.5884 10.5004 14.4832 10.5004 13.5C10.5004 12.7101 10.7083 11.9341 11.1033 11.25C11.4982 10.5659 12.0663 9.99784 12.7504 9.60289Z" fill="#0E0E0E"/>
</svg>
