<svg width="24" height="25" viewBox="0 0 24 25" fill="none" xmlns="http://www.w3.org/2000/svg">
<path fill-rule="evenodd" clip-rule="evenodd" d="M4 3.5C3.44772 3.5 3 3.94772 3 4.5V10.5C3 11.0523 3.44772 11.5 4 11.5H10C10.5523 11.5 11 11.0523 11 10.5V4.5C11 3.94772 10.5523 3.5 10 3.5H4ZM5 9.5V5.5H9V9.5H5Z" fill="#FF9416"/>
<path fill-rule="evenodd" clip-rule="evenodd" d="M4 13.5C3.44772 13.5 3 13.9477 3 14.5V20.5C3 21.0523 3.44772 21.5 4 21.5H10C10.5523 21.5 11 21.0523 11 20.5V14.5C11 13.9477 10.5523 13.5 10 13.5H4ZM5 19.5V15.5H9V19.5H5Z" fill="#FF9416"/>
<path fill-rule="evenodd" clip-rule="evenodd" d="M13 4.5C13 3.94772 13.4477 3.5 14 3.5H20C20.5523 3.5 21 3.94772 21 4.5V10.5C21 11.0523 20.5523 11.5 20 11.5H14C13.4477 11.5 13 11.0523 13 10.5V4.5ZM15 5.5V9.5H19V5.5H15Z" fill="#FF9416"/>
<path fill-rule="evenodd" clip-rule="evenodd" d="M14 13.5C13.4477 13.5 13 13.9477 13 14.5V20.5C13 21.0523 13.4477 21.5 14 21.5H20C20.5523 21.5 21 21.0523 21 20.5V14.5C21 13.9477 20.5523 13.5 20 13.5H14ZM15 19.5V15.5H19V19.5H15Z" fill="#FF9416"/>
</svg>
