<svg width="24" height="24" viewBox="0 0 24 24" fill="none" xmlns="http://www.w3.org/2000/svg">
<path fill-rule="evenodd" clip-rule="evenodd" d="M15.763 4.94027C14.19 4.10183 12.382 3.81275 10.626 4.11889C8.87002 4.42503 7.26654 5.30886 6.07007 6.63012C4.96644 7.84884 4.26741 9.37534 4.06275 11H7.00001C7.55229 11 8.00001 11.4477 8.00001 12V17C8.00001 17.2654 7.89454 17.5199 7.70683 17.7074C7.51911 17.895 7.26455 18.0002 6.99919 18L4.51451 17.998C4.18072 17.9977 3.86907 17.8309 3.6837 17.5533C2.44636 15.7003 1.8633 13.4872 2.02705 11.2651C2.1908 9.04299 3.09198 6.93923 4.58758 5.28765C6.08318 3.63607 8.08752 2.53128 10.2825 2.1486C12.4776 1.76593 14.7375 2.12729 16.7037 3.17534C18.67 4.22339 20.2299 5.89809 21.1359 7.93369C22.042 9.96928 22.2422 12.2492 21.7049 14.4115C21.1676 16.5739 19.9235 18.4949 18.17 19.8696C16.4166 21.2444 14.2542 21.9942 12.0261 22L12.0209 20C13.8034 19.9953 15.5333 19.3955 16.936 18.2957C17.0576 18.2004 17.1762 18.1017 17.2915 18H17C16.4477 18 16 17.5523 16 17V12C16 11.4477 16.4477 11 17 11H19.9373C19.8399 10.2274 19.6297 9.46803 19.3087 8.74695C18.5839 7.11848 17.336 5.77871 15.763 4.94027ZM19.9373 13H18V16H18.9282C19.2998 15.3565 19.5823 14.6601 19.7639 13.9292C19.8403 13.6219 19.898 13.3116 19.9373 13ZM4.06275 13C4.19543 14.0531 4.53687 15.073 5.07088 15.9984L6.00001 15.9992V13H4.06275Z" fill="#2B2D33"/>
</svg>
