<svg width="24" height="24" viewBox="0 0 24 24" fill="none" xmlns="http://www.w3.org/2000/svg">
<path d="M10.6947 2.08555C11.1261 2.02876 11.5621 2 12 2C12.0004 2 12.0009 2 12.0013 2C12.006 2 12.0107 2 12.0154 2.00001C12.4481 2.00068 12.8789 2.02942 13.3053 2.08555C14.1698 2.19937 15.0177 2.42605 15.8268 2.7612C15.852 2.77161 15.877 2.78212 15.9021 2.79273C16.2778 2.95194 16.6445 3.13448 17 3.33975C17.7552 3.77577 18.4518 4.30965 19.0711 4.92893C19.9997 5.85752 20.7362 6.95991 21.2388 8.17317C21.7413 9.38642 22 10.6868 22 12C22 13.3132 21.7413 14.6136 21.2388 15.8268C20.7362 17.0401 19.9997 18.1425 19.0711 19.0711C18.4518 19.6903 17.7552 20.2242 17 20.6603C16.6208 20.8792 16.2288 21.0723 15.8268 21.2388C15.0177 21.5739 14.1698 21.8006 13.3053 21.9145C12.8739 21.9712 12.4379 22 12 22C11.5621 22 11.1261 21.9712 10.6947 21.9145L10.9558 19.9316C11.3009 19.977 11.6497 20 12 20C12.3503 20 12.6991 19.977 13.0442 19.9316C13.7359 19.8405 14.4142 19.6592 15.0615 19.391C15.383 19.2578 15.6966 19.1034 16 18.9282C16.6042 18.5794 17.1614 18.1523 17.6569 17.6569C18.3997 16.914 18.989 16.0321 19.391 15.0615C19.7931 14.0909 20 13.0506 20 12C20 10.9494 19.7931 9.90914 19.391 8.93853C18.989 7.96793 18.3997 7.08601 17.6569 6.34315C17.1614 5.84772 16.6042 5.42062 16 5.0718C15.6966 4.89663 15.383 4.74216 15.0615 4.60896C14.4142 4.34084 13.7359 4.1595 13.0442 4.06844C12.6991 4.02301 12.3503 4 12 4C11.6497 4 11.3009 4.02301 10.9558 4.06844L10.6947 2.08555Z" fill="#039EFF"/>
<path d="M8.17317 2.7612C7.77119 2.92771 7.37923 3.1208 7 3.33975C6.62077 3.5587 6.25757 3.80159 5.91238 4.06647L7.12991 5.65317C7.40605 5.44128 7.6966 5.24696 8 5.0718C8.3034 4.89663 8.61696 4.74216 8.93853 4.60896L8.17317 2.7612Z" fill="#039EFF"/>
<path d="M3.33975 7C3.5587 6.62077 3.80159 6.25757 4.06646 5.91238L5.65317 7.12991C5.44128 7.40605 5.24696 7.6966 5.0718 8C4.89663 8.3034 4.74216 8.61696 4.60896 8.93853L2.7612 8.17317C2.9277 7.77119 3.12079 7.37924 3.33975 7Z" fill="#039EFF"/>
<path d="M2.08555 10.6947C2.02876 11.1261 2 11.5621 2 12C2 12.4379 2.02876 12.8739 2.08555 13.3053L4.06844 13.0442C4.02301 12.6991 4 12.3503 4 12C4 11.6497 4.02301 11.3009 4.06844 10.9558L2.08555 10.6947Z" fill="#039EFF"/>
<path d="M3.33975 17C3.1208 16.6208 2.92771 16.2288 2.7612 15.8268L4.60896 15.0615C4.74216 15.383 4.89663 15.6966 5.0718 16C5.24697 16.3034 5.44128 16.594 5.65317 16.8701L4.06647 18.0876C3.8016 17.7424 3.5587 17.3792 3.33975 17Z" fill="#039EFF"/>
<path d="M5.91238 19.9335C6.25757 20.1984 6.62077 20.4413 7 20.6603C7.37924 20.8792 7.77119 21.0723 8.17317 21.2388L8.93853 19.391C8.61696 19.2578 8.3034 19.1034 8 18.9282C7.6966 18.753 7.40605 18.5587 7.12991 18.3468L5.91238 19.9335Z" fill="#039EFF"/>
<path d="M11 12V7H13V11.5858L16.2071 14.7929L14.7929 16.2071L11.2929 12.7071C11.1054 12.5196 11 12.2652 11 12Z" fill="#039EFF"/>
</svg>
