<?xml version="1.0" encoding="utf-8"?><!DOCTYPE svg PUBLIC "-//W3C//DTD SVG 1.1//EN"
    "http://www.w3.org/Graphics/SVG/1.1/DTD/svg11.dtd">
<svg version="1.1" xmlns="http://www.w3.org/2000/svg" xmlns:xlink="http://www.w3.org/1999/xlink"
    x="0px" y="0px" viewBox="0 0 1000 1000" enable-background="new 0 0 1000 1000"
    xml:space="preserve">
<metadata> Svg Vector Icons : http://www.onlinewebfonts.com/icon </metadata>
    <g><path d="M254.9,709.8c0,38.7,31.4,70.1,70.1,70.1h35v157.5c0,29,23.5,52.6,52.4,52.6c28.9,0,52.6-23.5,52.6-52.6V779.8h71.1v157.5c0,29,23.5,52.6,52.6,52.6c29.1,0,52.6-23.5,52.6-52.6V779.8h34c38.7,0,70.1-31.4,70.1-70.1V359.6H254.9V709.8L254.9,709.8z M149.8,327.8c-38.7,0-70.1,31.4-70.1,70.1v241.9c0,38.7,31.4,70.1,70.1,70.1s70.1-31.4,70.1-70.1V397.9C219.8,359.2,188.4,327.8,149.8,327.8z M633.8,88.1l36.8-61.3c3.2-5.2,1.4-11.9-3.7-15c-5.2-3.4-11.9-1.5-15.1,3.6l-38.5,63.9c-30.1-11-66.9-17.5-112-17.5c-45.8,0-83.2,6.7-113.5,18.1l-38.8-64.4c-3.2-5.2-9.9-6.9-15-3.7c-5.2,3.2-6.9,9.9-3.7,15l37.2,61.9C265.8,138.6,255,246.2,255,304.8v14.3h490.4v-14.7C745.1,245.6,735.8,137.6,633.8,88.1L633.8,88.1z M387.3,218.4c-15,0-27.4-12.2-27.4-27.4s12.3-27.4,27.4-27.4c15.2,0,27.4,12.3,27.4,27.4S402.4,218.4,387.3,218.4z M613.8,218.4c-15,0-27.4-12.2-27.4-27.4s12.2-27.4,27.4-27.4c15.2,0,27.4,12.3,27.4,27.4S628.9,218.4,613.8,218.4z M850.2,327.8c-38.7,0-70.1,31.4-70.1,70.1v241.9c0,38.7,31.4,70.1,70.1,70.1c38.8,0,70.1-31.5,70.1-70.1V397.9C920.2,359.2,888.9,327.8,850.2,327.8z"/></g>
</svg>