<svg width="24" height="24" viewBox="0 0 24 24" fill="none" xmlns="http://www.w3.org/2000/svg">
    <path d="M2 4H5.03611V20.1026H2V4Z" fill="black" />
    <path
        d="M8.2813 4H13.7238C14.9982 4 16.1452 4.19491 17.1647 4.58473C18.1843 4.97455 19.0539 5.5293 19.7735 6.24897C20.4932 6.95364 21.0404 7.80076 21.4153 8.7903C21.8051 9.77985 22 10.8668 22 12.0513C22 13.2508 21.8051 14.3453 21.4153 15.3348C21.0404 16.3243 20.4932 17.1715 19.7735 17.8761C19.0539 18.5808 18.1843 19.1281 17.1647 19.5179C16.1452 19.9077 14.9982 20.1026 13.7238 20.1026H8.2813V4ZM13.5889 17.2239C14.4735 17.2239 15.2531 17.104 15.9278 16.8641C16.6025 16.6092 17.1647 16.2569 17.6145 15.8071C18.0643 15.3573 18.4017 14.8175 18.6265 14.1878C18.8514 13.5431 18.9639 12.8309 18.9639 12.0513C18.9639 11.2717 18.8514 10.567 18.6265 9.93727C18.4017 9.29257 18.0643 8.74532 17.6145 8.29553C17.1647 7.84573 16.6025 7.50089 15.9278 7.261C15.2531 7.00612 14.4735 6.87868 13.5889 6.87868H11.3174V17.2239H13.5889Z"
        fill="black" />
</svg>
