<?xml version="1.0" standalone="no"?>
<!DOCTYPE svg PUBLIC "-//W3C//DTD SVG 20010904//EN" "http://www.w3.org/TR/2001/REC-SVG-20010904/DTD/svg10.dtd">
<svg xmlns="http://www.w3.org/2000/svg" version="1.0" width="258.000000pt" height="195.000000pt" viewBox="0 0 258.000000 195.000000" preserveAspectRatio="xMidYMid meet">

<g transform="translate(0.000000,195.000000) scale(0.100000,-0.100000)" fill="#000000" stroke="none">
<path d="M329 1921 l-24 -19 -2 -564 c-2 -438 0 -568 10 -588 8 -15 27 -29 52 -36 l40 -11 -37 -7 c-20 -4 -46 -14 -57 -24 -26 -21 -298 -569 -303 -608 -7 -62 -70 -59 1287 -59 984 0 1235 3 1253 13 42 24 29 61 -126 367 l-147 290 -47 16 -48 15 37 10 c24 6 42 18 50 34 10 20 12 148 10 588 l-2 564 -24 19 c-22 18 -53 19 -961 19 -908 0 -939 -1 -961 -19z m1871 -581 l0 -510 -422 -1 c-233 0 -641 0 -908 1 l-485 0 -3 510 -2 510 910 0 910 0 0 -510z m-673 -637 c-137 -2 -357 -2 -490 0 -133 1 -21 2 248 2 270 0 378 -1 242 -2z m603 -683 c-191 -10 -1518 -10 -1685 -1 -72 4 311 8 850 8 539 0 915 -4 835 -7z"/>
</g>
</svg>
