<svg width="49" height="48" viewBox="0 0 49 48" fill="none" xmlns="http://www.w3.org/2000/svg">
<path fill-rule="evenodd" clip-rule="evenodd" d="M23.1229 5.87936C24.57 3.3469 27.7434 2.38607 30.3522 3.69048C31.4158 4.22227 32.2782 5.08467 32.81 6.14824L33.2368 7.00196C34.1292 8.78672 34.3537 10.8318 33.8698 12.7677L33.0616 16.0004H38.5919C42.8367 16.0004 45.7392 20.2876 44.1628 24.2288L39.3628 36.2288C38.4516 38.5067 36.2453 40.0004 33.7919 40.0004H20.5C20.1052 40.0004 19.7192 39.8836 19.3906 39.6645L16.5 37.7375V38.0005C16.5 39.1051 15.6046 40.0005 14.5 40.0005H6.5C5.39543 40.0005 4.5 39.1051 4.5 38.0005V16.0005C4.5 14.8959 5.39543 14.0005 6.5 14.0005H14.5C15.6046 14.0005 16.5 14.8959 16.5 16.0004H17.3394L23.1229 5.87936ZM21.1056 36.0004L16.5 32.9301V20.0004H18.5C19.2177 20.0004 19.8804 19.6159 20.2365 18.9927L26.5958 7.86391C26.9897 7.17468 27.8534 6.91318 28.5634 7.26819C28.8528 7.41292 29.0876 7.64763 29.2323 7.93709L29.6591 8.79081C30.1245 9.72154 30.2416 10.788 29.9892 11.7975L28.9385 16.0005H26.5V20.0005H30.5C30.5 20.0005 30.5 20.0005 30.5 20.0005L38.5919 20.0004C40.0068 20.0004 40.9743 21.4295 40.4488 22.7432L35.6488 34.7432C35.3451 35.5025 34.6097 36.0004 33.7919 36.0004H21.1056ZM8.5 18.0005V36.0005H12.5V18.0005H8.5Z" fill="#299E51"/>
</svg>
