<svg width="16" height="16" viewBox="0 0 16 16" fill="none" xmlns="http://www.w3.org/2000/svg">
<path fill-rule="evenodd" clip-rule="evenodd" d="M7.54096 1.9597C8.02333 1.11555 9.08114 0.795274 9.95075 1.23008C10.3053 1.40734 10.5927 1.69481 10.77 2.04933L10.9123 2.3339C11.2097 2.92883 11.2846 3.61053 11.1233 4.25582L10.8539 5.3334H12.6973C14.1122 5.3334 15.0797 6.76245 14.5543 8.07618L12.9543 12.0762C12.6505 12.8355 11.9151 13.3334 11.0973 13.3334H6.66668C6.53506 13.3334 6.40639 13.2944 6.29688 13.2214L5.33334 12.5791V12.6667C5.33334 13.0349 5.03486 13.3334 4.66667 13.3334H2C1.63181 13.3334 1.33334 13.0349 1.33334 12.6667V5.33341C1.33334 4.96522 1.63181 4.66675 2 4.66675H4.66667C5.03485 4.66675 5.33333 4.96522 5.33334 5.3334H5.61313L7.54096 1.9597ZM6.86853 12.0001L5.33334 10.9766V6.66673H6.00001C6.23925 6.66673 6.46014 6.53854 6.57884 6.33083L8.69861 2.62122C8.8299 2.39148 9.11779 2.30431 9.35446 2.42265C9.45095 2.47089 9.52919 2.54913 9.57743 2.64562L9.71972 2.93019C9.87484 3.24043 9.91386 3.59593 9.82973 3.93243L9.47949 5.33341H8.66667V6.66675H10C10 6.66675 10 6.66675 10 6.66675L12.6973 6.66673C13.1689 6.66673 13.4914 7.14308 13.3163 7.58099L11.7163 11.581C11.615 11.8341 11.3699 12.0001 11.0973 12.0001H6.86853ZM2.66667 6.00008V12.0001H4V6.00008H2.66667Z" fill="#299E51"/>
</svg>
