<svg width="24" height="24" viewBox="0 0 24 24" fill="none" xmlns="http://www.w3.org/2000/svg">
<path fill-rule="evenodd" clip-rule="evenodd" d="M12 2C9.87827 2 7.84344 2.84285 6.34315 4.34315C4.84285 5.84344 4 7.87827 4 10C4 13.0981 6.01574 16.1043 8.22595 18.4373C9.31061 19.5822 10.3987 20.5195 11.2167 21.1708C11.5211 21.4133 11.787 21.6152 12 21.7726C12.213 21.6152 12.4789 21.4133 12.7833 21.1708C13.6013 20.5195 14.6894 19.5822 15.774 18.4373C17.9843 16.1043 20 13.0981 20 10C20 7.87827 19.1571 5.84344 17.6569 4.34315C16.1566 2.84285 14.1217 2 12 2ZM12 23C11.4453 23.8321 11.445 23.8319 11.4448 23.8317L11.4419 23.8298L11.4352 23.8253L11.4123 23.8098C11.3928 23.7966 11.3651 23.7776 11.3296 23.753C11.2585 23.7038 11.1565 23.6321 11.0278 23.5392C10.7705 23.3534 10.4064 23.0822 9.97082 22.7354C9.10133 22.043 7.93939 21.0428 6.77405 19.8127C4.48426 17.3958 2 13.9019 2 10C2 7.34784 3.05357 4.8043 4.92893 2.92893C6.8043 1.05357 9.34784 0 12 0C14.6522 0 17.1957 1.05357 19.0711 2.92893C20.9464 4.8043 22 7.34784 22 10C22 13.9019 19.5157 17.3958 17.226 19.8127C16.0606 21.0428 14.8987 22.043 14.0292 22.7354C13.5936 23.0822 13.2295 23.3534 12.9722 23.5392C12.8435 23.6321 12.7415 23.7038 12.6704 23.753C12.6349 23.7776 12.6072 23.7966 12.5877 23.8098L12.5648 23.8253L12.5581 23.8298L12.556 23.8312C12.5557 23.8314 12.5547 23.8321 12 23ZM12 23L12.5547 23.8321C12.2188 24.056 11.7807 24.0556 11.4448 23.8317L12 23Z" fill="#005A91"/>
<path d="M12.2294 15.156C10.9641 15.156 9.90239 14.74 9.04439 13.908C8.19505 13.0674 7.77039 11.9884 7.77039 10.671C7.77039 9.3537 8.19505 8.27904 9.04439 7.44704C9.90239 6.60637 10.9641 6.18604 12.2294 6.18604C13.6161 6.18604 14.7124 6.75804 15.5184 7.90204L14.6084 8.40904C14.3571 8.03637 14.0191 7.73304 13.5944 7.49904C13.1697 7.26504 12.7147 7.14804 12.2294 7.14804C11.2761 7.14804 10.4787 7.4817 9.83739 8.14904C9.20472 8.8077 8.88839 9.64837 8.88839 10.671C8.88839 11.6937 9.20472 12.5387 9.83739 13.206C10.4787 13.8647 11.2761 14.194 12.2294 14.194C12.7147 14.194 13.1697 14.0814 13.5944 13.856C14.0191 13.622 14.3571 13.3144 14.6084 12.933L15.5314 13.44C14.6907 14.584 13.5901 15.156 12.2294 15.156Z" fill="#005A91"/>
</svg>
