<svg width="24" height="24" viewBox="0 0 24 24" fill="none" xmlns="http://www.w3.org/2000/svg">
    <path fill-rule="evenodd" clip-rule="evenodd"
        d="M20.7142 3.28578C20.9914 3.56291 21.0757 3.97897 20.9285 4.34218L13.6114 22.3909C13.451 22.7867 13.0518 23.0321 12.6262 22.9966C12.2006 22.9611 11.8476 22.6529 11.7549 22.236L9.9384 14.0616L1.76399 12.2451C1.34709 12.1524 1.03891 11.7994 1.0034 11.3738C0.96789 10.9482 1.21331 10.549 1.60909 10.3886L19.6578 3.0715C20.021 2.92426 20.4371 3.00865 20.7142 3.28578ZM5.2453 11.0199L10.9677 12.2915C11.3375 12.3737 11.6263 12.6625 11.7085 13.0323L12.9801 18.7547L18.2539 5.74614L5.2453 11.0199Z"
        fill="#999999" />
</svg>
