<svg width="24" height="24" viewBox="0 0 24 24" fill="none" xmlns="http://www.w3.org/2000/svg">
<path d="M12 14C13.1046 14 14 13.1046 14 12C14 10.8954 13.1046 10 12 10C10.8954 10 10 10.8954 10 12C10 13.1046 10.8954 14 12 14Z" fill="#008EE6"/>
<path fill-rule="evenodd" clip-rule="evenodd" d="M13 0V2.04938C17.7244 2.51844 21.4816 6.27558 21.9506 11H24V13H21.9506C21.4816 17.7244 17.7244 21.4816 13 21.9506V24H11V21.9506C6.27558 21.4816 2.51844 17.7244 2.04938 13H0V11H2.04938C2.51844 6.27558 6.27558 2.51844 11 2.04938V0H13ZM4 12C4 7.58172 7.58172 4 12 4C16.4183 4 20 7.58172 20 12C20 16.4183 16.4183 20 12 20C7.58172 20 4 16.4183 4 12Z" fill="#008EE6"/>
</svg>
