<svg width="24" height="24" viewBox="0 0 24 24" fill="none" xmlns="http://www.w3.org/2000/svg">
<path d="M13 15V18H11V15H13Z" fill="#005A91"/>
<path fill-rule="evenodd" clip-rule="evenodd" d="M12 2C10.6739 2 9.40215 2.52678 8.46447 3.46447C7.52678 4.40215 7 5.67392 7 7L7 11H5C4.44772 11 4 11.4477 4 12V21C4 21.5523 4.44772 22 5 22H19C19.5523 22 20 21.5523 20 21V12C20 11.4477 19.5523 11 19 11H17V7C17 5.67392 16.4732 4.40215 15.5355 3.46447C14.5979 2.52678 13.3261 2 12 2ZM9 7V11H15V7C15 6.20435 14.6839 5.44129 14.1213 4.87868C13.5587 4.31607 12.7956 4 12 4C11.2044 4 10.4413 4.31607 9.87868 4.87868C9.31607 5.44129 9 6.20435 9 7ZM6 13V20H18V13H6Z" fill="#005A91"/>
</svg>
