<svg width="20" height="20" viewBox="0 0 20 20" fill="none" xmlns="http://www.w3.org/2000/svg">
    <path fill-rule="evenodd" clip-rule="evenodd"
        d="M17.2618 2.73815C17.4927 2.96909 17.563 3.31581 17.4403 3.61848L11.3428 18.6591C11.2091 18.9889 10.8764 19.1934 10.5217 19.1638C10.1671 19.1342 9.8729 18.8774 9.7957 18.53L8.28192 11.718L1.46991 10.2042C1.1225 10.127 0.865677 9.83283 0.836085 9.47818C0.806494 9.12352 1.01101 8.79084 1.34083 8.65713L16.3814 2.55959C16.6841 2.43688 17.0308 2.50721 17.2618 2.73815ZM4.371 9.18323L9.1397 10.2429C9.44784 10.3114 9.6885 10.5521 9.75698 10.8602L10.8167 15.6289L15.2115 4.78845L4.371 9.18323Z"
        fill="#999999" />
</svg>
