<svg width="16" height="20" viewBox="0 0 16 20" fill="none" xmlns="http://www.w3.org/2000/svg">
<path fill-rule="evenodd" clip-rule="evenodd" d="M3.9999 0C3.63963 0 3.3072 0.193793 3.1297 0.507301C2.95219 0.82081 2.95705 1.20556 3.1424 1.5145L5.78987 5.92693L1.06577 12.0008C-0.306428 13.765 -0.328041 16.2294 1.013 18.0175C1.94902 19.2655 3.41802 20 4.97807 20H11.0217C12.5818 20 14.0508 19.2655 14.9868 18.0175C16.3278 16.2294 16.3062 13.765 14.934 12.0008L11.0445 7H14V5H10.7661L12.8574 1.5145C13.0427 1.20556 13.0476 0.82081 12.8701 0.507301C12.6926 0.193793 12.3602 0 11.9999 0H3.9999ZM2.64447 13.2287L7.48898 7H8.51081L13.3553 13.2287C14.1738 14.281 14.1867 15.7509 13.3868 16.8175C12.8285 17.5619 11.9523 18 11.0217 18H4.97807C4.04754 18 3.17131 17.5619 2.613 16.8175C1.8131 15.7509 1.82599 14.281 2.64447 13.2287ZM10.2337 2L8.43371 5H7.56609L5.76609 2H10.2337Z" fill="#008EE6"/>
</svg>
