<svg width="24" height="24" viewBox="0 0 24 24" fill="none" xmlns="http://www.w3.org/2000/svg">
<path d="M8 9L16 9V7L8 7L8 9Z" fill="#2B2D33"/>
<path d="M14 13L8 13L8 11L14 11L14 13Z" fill="#2B2D33"/>
<path d="M8 17L16 17L16 15L8 15L8 17Z" fill="#2B2D33"/>
<path fill-rule="evenodd" clip-rule="evenodd" d="M4 21V3C4 2.44772 4.44772 2 5 2H5.52786C5.9936 2 6.45294 2.10844 6.8695 2.31672L7.55279 2.65836C7.83431 2.79912 8.16569 2.79912 8.44721 2.65836L8.65836 2.55279C9.50294 2.1305 10.4971 2.1305 11.3416 2.55279L11.5528 2.65836C11.8343 2.79912 12.1657 2.79912 12.4472 2.65836L12.6584 2.55279C13.5029 2.1305 14.4971 2.1305 15.3416 2.55279L15.5528 2.65836C15.8343 2.79912 16.1657 2.79912 16.4472 2.65836L17.1305 2.31672C17.5471 2.10844 18.0064 2 18.4721 2H19C19.2652 2 19.5196 2.10536 19.7071 2.29289C19.8946 2.48043 20 2.73478 20 3V21C20 21.5523 19.5523 22 19 22H18.4721C18.0064 22 17.5471 21.8916 17.1305 21.6833L16.4472 21.3416C16.1657 21.2009 15.8343 21.2009 15.5528 21.3416L15.3416 21.4472C14.4971 21.8695 13.5029 21.8695 12.6584 21.4472L12.4472 21.3416C12.1657 21.2009 11.8343 21.2009 11.5528 21.3416L11.3416 21.4472C10.4971 21.8695 9.50294 21.8695 8.65836 21.4472L8.44721 21.3416C8.16569 21.2009 7.83431 21.2009 7.55279 21.3416L6.8695 21.6833C6.45294 21.8916 5.9936 22 5.52786 22H5C4.73478 22 4.48043 21.8946 4.29289 21.7071C4.10536 21.5196 4 21.2652 4 21ZM6.65836 4.44721L6 4.11803L6 19.882L6.65836 19.5528C7.50294 19.1305 8.49706 19.1305 9.34164 19.5528L9.55279 19.6584C9.83431 19.7991 10.1657 19.7991 10.4472 19.6584L10.6584 19.5528C11.5029 19.1305 12.4971 19.1305 13.3416 19.5528L13.5528 19.6584C13.8343 19.7991 14.1657 19.7991 14.4472 19.6584L14.6584 19.5528C15.5029 19.1305 16.4971 19.1305 17.3416 19.5528L18 19.882V4.11803L17.3416 4.44721C16.4971 4.8695 15.5029 4.8695 14.6584 4.44721L14.4472 4.34164C14.1657 4.20088 13.8343 4.20088 13.5528 4.34164L13.3416 4.44721C12.4971 4.86951 11.5029 4.86951 10.6584 4.44721L10.4472 4.34164C10.1657 4.20088 9.83431 4.20088 9.55279 4.34164L9.34164 4.44721C8.49706 4.86951 7.50294 4.86951 6.65836 4.44721Z" fill="#2B2D33"/>
</svg>
