<svg width="24" height="24" viewBox="0 0 24 24" fill="none" xmlns="http://www.w3.org/2000/svg">
    <path fill-rule="evenodd" clip-rule="evenodd"
        d="M19 9C19 7.14349 18.2625 5.36301 16.9497 4.05025C15.637 2.7375 13.8565 2 12 2C10.1435 2 8.36301 2.7375 7.05025 4.05025C5.7375 5.36301 4.99994 7.14349 4.99994 9V11.5858L3.70705 12.8787C2.53548 14.0503 2.53548 15.9497 3.70705 17.1213L4.29284 17.7071C4.48037 17.8946 4.73473 18 4.99994 18H8C8 19.0609 8.42143 20.0783 9.17157 20.8284C9.92172 21.5786 10.9391 22 12 22C13.0609 22 14.0783 21.5786 14.8284 20.8284C15.5786 20.0783 16 19.0609 16 18H18.9999C19.2652 18 19.5195 17.8946 19.7071 17.7071L20.2928 17.1213C21.4644 15.9497 21.4644 14.0503 20.2928 12.8787L18.9999 11.5858L19 9ZM6.99994 12V9C6.99994 7.67392 7.52679 6.40215 8.46447 5.46447C9.40215 4.52678 10.6739 4 12 4C13.3261 4 14.5979 4.52678 15.5355 5.46447C16.4732 6.40215 16.9999 7.67392 16.9999 9V12C16.9999 12.2652 17.1053 12.5196 17.2928 12.7071L18.8786 14.2929C19.2691 14.6834 19.2691 15.3166 18.8786 15.7071L18.5857 16H5.41416L5.12126 15.7071C4.73074 15.3166 4.73074 14.6834 5.12126 14.2929L6.70705 12.7071C6.89459 12.5196 6.99994 12.2652 6.99994 12ZM10 18C10 18.5304 10.2107 19.0391 10.5858 19.4142C10.9609 19.7893 11.4696 20 12 20C12.5304 20 13.0391 19.7893 13.4142 19.4142C13.7893 19.0391 14 18.5304 14 18H10Z"
        fill="#2B2D33" />
</svg>
