<svg width="24" height="24" viewBox="0 0 24 24" fill="none" xmlns="http://www.w3.org/2000/svg">
<path fill-rule="evenodd" clip-rule="evenodd" d="M9 10C8.44772 10 8 10.4477 8 11V15C8 15.8335 8.64083 16.2778 8.98311 16.4679C9.34725 16.6702 9.79827 16.8203 10.1404 16.9343L10.1838 16.9487C10.582 17.0814 10.856 17.1765 11.0388 17.2766C11.1587 17.6944 11.5437 18 12 18C12.4563 18 12.8413 17.6944 12.9612 17.2766C13.144 17.1765 13.418 17.0814 13.8162 16.9487L13.8595 16.9343C14.2017 16.8204 14.6528 16.6702 15.0169 16.4679C15.3592 16.2778 16 15.8335 16 15V11C16 10.4477 15.5523 10 15 10H9ZM10 14.7438V12H14V14.7438C13.818 14.8367 13.5548 14.9276 13.1838 15.0513L13.1405 15.0657C12.8036 15.1779 12.3611 15.3252 12 15.5228C11.6389 15.3252 11.1965 15.1779 10.8596 15.0658L10.8162 15.0513C10.4452 14.9276 10.182 14.8367 10 14.7438ZM14.1329 14.6632C14.1334 14.6632 14.1295 14.6669 14.1195 14.6741C14.1273 14.6667 14.1323 14.6631 14.1329 14.6632ZM11.1329 17.3368C11.1323 17.3369 11.1273 17.3333 11.1196 17.3259C11.1295 17.3331 11.1334 17.3368 11.1329 17.3368ZM9.86714 14.6632C9.8677 14.6631 9.87269 14.6667 9.88045 14.6741C9.87045 14.6669 9.86658 14.6632 9.86714 14.6632ZM12.8804 17.3259C12.8727 17.3333 12.8677 17.3369 12.8671 17.3368C12.8666 17.3368 12.8705 17.3331 12.8804 17.3259Z" fill="#008EE6"/>
<path fill-rule="evenodd" clip-rule="evenodd" d="M7 2C5.34315 2 4 3.34315 4 5V21C4 21.5523 4.44772 22 5 22H17C18.6569 22 20 20.6569 20 19V7C20 6.44772 19.5523 6 19 6H6V5C6 4.44772 6.44772 4 7 4H20V2H7ZM6 20V8H18V19C18 19.5523 17.5523 20 17 20H6Z" fill="#008EE6"/>
</svg>
