<svg width="24" height="25" viewBox="0 0 24 25" fill="none" xmlns="http://www.w3.org/2000/svg">
<path d="M13 15.5C13.5523 15.5 14 15.0523 14 14.5C14 13.9477 13.5523 13.5 13 13.5C12.4477 13.5 12 13.9477 12 14.5C12 15.0523 12.4477 15.5 13 15.5Z" fill="#FF9416"/>
<path fill-rule="evenodd" clip-rule="evenodd" d="M3.6 2.70001C3.29698 2.47274 2.89157 2.43619 2.55279 2.60558C2.214 2.77497 2 3.12123 2 3.50001V7.50001H4V5.50001L6.4 7.30001C6.5731 7.42983 6.78363 7.50001 7 7.50001H13C13.5523 7.50001 14 7.94772 14 8.50001V9.50001L3 9.5C2.44772 9.5 2 9.94772 2 10.5V20.5C2 21.0523 2.44772 21.5 3 21.5H17C17.5523 21.5 18 21.0523 18 20.5V18.0915L20.5454 19.3907C20.8554 19.5489 21.2254 19.5346 21.5222 19.3528C21.819 19.1711 22 18.8481 22 18.5V11.5C22 11.1519 21.819 10.8289 21.5222 10.6472C21.2254 10.4654 20.8554 10.4511 20.5454 10.6093L18 11.9085V10.5C18 9.94772 17.5523 9.5 17 9.5L16 9.50001V8.50001C16 6.84315 14.6569 5.50001 13 5.50001H7.33333L3.6 2.70001ZM18 15.846V14.154L20 13.1331V16.8669L18 15.846ZM16 11.5V19.5H4V11.5H16Z" fill="#FF9416"/>
</svg>
