<svg width="24" height="24" viewBox="0 0 24 24" fill="none" xmlns="http://www.w3.org/2000/svg">
    <path fill-rule="evenodd" clip-rule="evenodd"
        d="M7.9999 2C7.63963 2 7.3072 2.19379 7.1297 2.5073C6.95219 2.82081 6.95705 3.20556 7.1424 3.5145L9.78987 7.92693L5.06577 14.0008C3.69357 15.765 3.67196 18.2294 5.013 20.0175C5.94902 21.2655 7.41802 22 8.97807 22H15.0217C16.5818 22 18.0508 21.2655 18.9868 20.0175C20.3278 18.2294 20.3062 15.765 18.934 14.0008L15.0445 9H18V7H14.7661L16.8574 3.5145C17.0427 3.20556 17.0476 2.82081 16.8701 2.5073C16.6926 2.19379 16.3602 2 15.9999 2H7.9999ZM6.64447 15.2287L11.489 9H12.5108L17.3553 15.2287C18.1738 16.281 18.1867 17.7509 17.3868 18.8175C16.8285 19.5619 15.9523 20 15.0217 20H8.97807C8.04754 20 7.17131 19.5619 6.613 18.8175C5.8131 17.7509 5.82599 16.281 6.64447 15.2287ZM14.2337 4L12.4337 7H11.5661L9.76609 4H14.2337Z"
        fill="#008EE6" />
</svg>
