<svg width="24" height="24" viewBox="0 0 24 24" fill="none" xmlns="http://www.w3.org/2000/svg">
    <path
        d="M10 2C9.44772 2 9 2.44772 9 3V6H10C10.5523 6 11 5.55228 11 5V4H13V5C13 5.55228 13.4477 6 14 6H15V3C15 2.44772 14.5523 2 14 2H10Z"
        fill="#2B2D33" />
    <path d="M4 5C4 4.44772 4.44772 4 5 4H7V6H6V20H12V22H5C4.44772 22 4 21.5523 4 21V5Z"
        fill="#2B2D33" />
    <path d="M17 6H18V14H20V5C20 4.44772 19.5523 4 19 4H17V6Z" fill="#2B2D33" />
    <path d="M18 20L17 19V18V17.5" stroke="#006BAD" />
    <circle cx="17" cy="19" r="3.25" stroke="#006BAD" stroke-width="1.5" />
</svg>
