<svg width="24" height="24" viewBox="0 0 24 24" fill="none" xmlns="http://www.w3.org/2000/svg">
    <path fill-rule="evenodd" clip-rule="evenodd"
        d="M7.04217 2.71265C7.16907 2.28967 7.55839 2 8 2H17C17.3466 2 17.6684 2.17945 17.8507 2.47427C18.0329 2.76909 18.0494 3.13723 17.8944 3.44721L15.618 8H20C20.3894 8 20.7433 8.22602 20.9072 8.57925C21.071 8.93249 21.0149 9.3487 20.7634 9.64594L9.76339 22.6459C9.47917 22.9818 9.0088 23.0925 8.60464 22.9185C8.20049 22.7446 7.95753 22.3269 8.00612 21.8896L8.88274 14H5C4.68389 14 4.3864 13.8505 4.19771 13.5969C4.00901 13.3433 3.95134 13.0154 4.04217 12.7127L7.04217 2.71265ZM8.74403 4L6.34403 12H10C10.2844 12 10.5554 12.1211 10.7451 12.3331C10.9348 12.545 11.0253 12.8277 10.9939 13.1104L10.3563 18.849L17.8439 10H14C13.6534 10 13.3316 9.82055 13.1494 9.52573C12.9671 9.23091 12.9506 8.86277 13.1056 8.55279L15.382 4H8.74403Z"
        fill="#008EE6" />
</svg>
