<svg width="227" height="229" viewBox="0 0 227 229" fill="none" xmlns="http://www.w3.org/2000/svg">
<path d="M57.2617 219.751C57.0112 219.762 56.7633 219.697 56.5514 219.562C56.3396 219.428 56.1741 219.232 56.0773 219C55.9806 218.768 55.9573 218.513 56.0106 218.267C56.064 218.022 56.1913 217.799 56.3754 217.628C56.4063 217.506 56.4284 217.418 56.4592 217.295C56.2195 216.685 55.8034 216.161 55.2643 215.789C54.7251 215.418 54.0875 215.216 53.4331 215.21C52.7787 215.204 52.1374 215.394 51.5914 215.755C51.0453 216.116 50.6194 216.632 50.3683 217.237C48.9189 220.634 47.0432 224.151 47.976 227.893C41.8143 214.816 43.9098 198.549 53.016 187.366C55.533 185.978 57.5732 183.511 58.1043 180.647C56.8586 181.069 55.3054 180.055 56.242 178.741C56.648 178.238 57.058 177.74 57.4639 177.238C52.7318 172.192 47.0937 180.123 52.3023 186.934C50.5984 189.073 49.1225 191.385 47.8987 193.831C48.1813 191.234 47.844 188.606 46.9145 186.164C45.9724 183.888 44.2067 181.972 42.6518 180.004C40.7612 177.607 36.8701 178.713 36.6157 181.755C38.3605 182.329 38.5871 184.853 36.5913 185.198C37.1141 190.857 40.8061 196.058 45.8912 198.54C44.0134 203.816 43.2801 209.432 43.7403 215.015C42.8427 208.491 35.8492 206.907 30.961 204.315C30.6499 204.115 30.2875 204.01 29.9179 204.013C29.5483 204.016 29.1876 204.126 28.8797 204.331C28.5718 204.536 28.3301 204.826 28.1841 205.166C28.038 205.506 27.9939 205.881 28.0571 206.246C28.7318 206.52 29.3776 206.862 29.9849 207.264C30.2694 207.456 30.4879 207.731 30.6102 208.052C30.7326 208.372 30.7529 208.723 30.6683 209.056C30.5837 209.389 30.3984 209.687 30.1378 209.91C29.8772 210.134 29.5541 210.271 29.2127 210.303C31.6766 216.409 38.0469 220.51 44.5895 220.486C45.2183 223.222 46.1292 225.885 47.3078 228.433H57.0184C57.0532 228.325 57.0845 228.213 57.1159 228.105C56.217 228.162 55.3146 228.108 54.4289 227.945C56.8069 225.125 58.646 223.687 57.262 219.751L57.2617 219.751Z" fill="#F2F2F2"/>
<path d="M143.834 219.751C144.084 219.762 144.332 219.697 144.544 219.562C144.756 219.428 144.921 219.232 145.018 219C145.115 218.768 145.138 218.513 145.085 218.267C145.031 218.022 144.904 217.799 144.72 217.628C144.689 217.506 144.667 217.418 144.636 217.295C144.876 216.685 145.292 216.161 145.831 215.789C146.37 215.418 147.008 215.216 147.662 215.21C148.317 215.204 148.958 215.394 149.504 215.755C150.05 216.116 150.476 216.632 150.727 217.237C152.176 220.634 154.052 224.151 153.119 227.893C159.281 214.816 157.186 198.549 148.079 187.366C145.562 185.978 143.522 183.511 142.991 180.647C144.237 181.069 145.79 180.055 144.853 178.741C144.447 178.238 144.037 177.74 143.631 177.238C148.363 172.192 154.002 180.123 148.793 186.934C150.497 189.073 151.973 191.385 153.197 193.831C152.914 191.234 153.251 188.606 154.181 186.164C155.123 183.888 156.889 181.972 158.444 180.004C160.334 177.607 164.225 178.713 164.48 181.755C162.735 182.329 162.508 184.853 164.504 185.198C163.981 190.857 160.289 196.058 155.204 198.54C157.082 203.816 157.815 209.432 157.355 215.015C158.253 208.491 165.246 206.907 170.134 204.315C170.445 204.115 170.808 204.01 171.177 204.013C171.547 204.016 171.908 204.126 172.216 204.331C172.524 204.536 172.765 204.826 172.911 205.166C173.057 205.506 173.101 205.881 173.038 206.246C172.364 206.52 171.718 206.862 171.111 207.264C170.826 207.456 170.607 207.731 170.485 208.052C170.363 208.372 170.343 208.723 170.427 209.056C170.512 209.389 170.697 209.687 170.958 209.91C171.218 210.134 171.541 210.271 171.883 210.303C169.419 216.409 163.048 220.51 156.506 220.486C155.877 223.222 154.966 225.885 153.788 228.433H144.077C144.042 228.325 144.011 228.213 143.979 228.105C144.878 228.162 145.781 228.108 146.666 227.945C144.288 225.125 142.449 223.687 143.833 219.751L143.834 219.751Z" fill="#F2F2F2"/>
<path d="M147.434 221.195L143.252 222.147L137.592 206.448L143.764 205.042L147.434 221.195Z" fill="#FFB6B6"/>
<path d="M148.574 225.53L135.714 228.46L135.677 228.297C135.375 226.968 135.613 225.573 136.338 224.419C137.063 223.265 138.216 222.447 139.544 222.144L139.544 222.144L141.487 219.824L146.276 220.61L147.398 220.355L148.574 225.53Z" fill="#2F2E41"/>
<path d="M214.895 144.673L217.194 148.298L204.324 158.904L200.93 153.553L214.895 144.673Z" fill="#FFB6B6"/>
<path d="M218.591 142.143L225.661 153.291L225.52 153.381C224.371 154.111 222.979 154.355 221.65 154.058C220.321 153.761 219.165 152.948 218.435 151.797L218.435 151.797L215.6 150.742L214.734 145.961L214.117 144.988L218.591 142.143Z" fill="#2F2E41"/>
<path d="M81.5908 105.913L80.5579 99.918L96.2609 92.8175L99.6521 86.8053C99.5426 86.2777 99.5808 85.73 99.7626 85.2229C99.9444 84.7157 100.263 84.2687 100.682 83.9312C101.102 83.5938 101.606 83.379 102.14 83.3107C102.674 83.2424 103.216 83.3231 103.707 83.544C104.198 83.7649 104.618 84.1173 104.921 84.5624C105.225 85.0075 105.399 85.5279 105.426 86.0661C105.453 86.6043 105.33 87.1394 105.072 87.6122C104.814 88.0851 104.43 88.4773 103.964 88.7456L98.3851 97.382L81.5908 105.913Z" fill="#A0616A"/>
<path d="M76.8174 101.012L83.8889 97.3945L85.7608 104.433L80.8489 108.079L76.8174 101.012Z" fill="#EC7E00"/>
<path d="M60.9494 220.65L65.225 220.649L67.259 204.135L60.9484 204.135L60.9494 220.65Z" fill="#A0616A"/>
<path d="M66.6478 221.034V218.132L65.5237 218.201L60.948 218.472L59.889 218.537L59.0794 228.258L59.0361 228.78H62.0721L62.1697 228.262L62.6106 225.91L63.7491 228.262L63.9985 228.78H72.0475C72.5265 228.777 72.9849 228.584 73.3233 228.245C73.6616 227.905 73.8526 227.446 73.8547 226.966C74.1944 225.378 67.5007 221.943 66.6478 221.034Z" fill="#2F2E41"/>
<path d="M10.195 155.109L9.1983 159.273L24.7617 165.104L26.2326 158.959L10.195 155.109Z" fill="#A0616A"/>
<path d="M8.83046 160.568L11.6492 161.245L11.8445 160.135L12.6478 155.616L12.8315 154.569L3.57981 151.514L3.0838 151.351L2.37592 154.307L2.85577 154.523L5.0375 155.5L2.4875 156.061L1.92676 156.183L0.0500478 164.021C-0.0586809 164.488 0.0209956 164.979 0.271791 165.388C0.522587 165.796 0.924243 166.089 1.38954 166.203C2.85327 166.904 7.7494 161.187 8.83046 160.568Z" fill="#2F2E41"/>
<path d="M67.5604 113.768L62.0569 111.191L51.0817 124.491L44.3966 126.184C43.9172 125.94 43.3795 125.832 42.843 125.875C42.3065 125.917 41.7921 126.106 41.3566 126.423C40.921 126.739 40.5813 127.17 40.3749 127.668C40.1685 128.165 40.1035 128.711 40.1871 129.243C40.2707 129.775 40.4996 130.274 40.8485 130.684C41.1974 131.094 41.6528 131.4 42.1643 131.568C42.6758 131.735 43.2235 131.757 43.747 131.633C44.2705 131.508 44.7494 131.241 45.1307 130.86L54.9199 127.745L67.5604 113.768Z" fill="#A0616A"/>
<path d="M145.585 64.5325C144.419 64.5325 143.278 64.1861 142.308 63.5371C141.338 62.8881 140.582 61.9656 140.136 60.8864C139.69 59.8071 139.573 58.6196 139.8 57.4738C140.028 56.3281 140.59 55.2757 141.415 54.4497C142.24 53.6236 143.291 53.0611 144.435 52.8332C145.579 52.6053 146.765 52.7223 147.843 53.1693C148.92 53.6164 149.842 54.3734 150.49 55.3447C151.138 56.316 151.484 57.4579 151.484 58.6261C151.482 60.192 150.86 61.6934 149.754 62.8006C148.648 63.9079 147.149 64.5308 145.585 64.5325ZM145.585 53.3976C144.553 53.3976 143.543 53.7042 142.685 54.2787C141.826 54.8532 141.157 55.6698 140.761 56.6252C140.366 57.5806 140.263 58.6319 140.464 59.6462C140.666 60.6604 141.163 61.5921 141.893 62.3233C142.624 63.0545 143.554 63.5525 144.567 63.7542C145.58 63.956 146.629 63.8524 147.584 63.4567C148.538 63.061 149.353 62.3908 149.927 61.531C150.501 60.6711 150.807 59.6602 150.807 58.6261C150.805 57.2399 150.255 55.9109 149.276 54.9307C148.297 53.9505 146.97 53.3991 145.585 53.3976Z" fill="#E6E6E6"/>
<path d="M145.169 60.852C145.157 60.852 145.145 60.8516 145.134 60.851C145.029 60.846 144.927 60.8183 144.833 60.7699C144.74 60.7215 144.659 60.6535 144.595 60.5706L143.665 59.3744C143.607 59.2989 143.564 59.2126 143.538 59.1204C143.513 59.0281 143.506 58.9318 143.518 58.8369C143.53 58.7419 143.56 58.6503 143.607 58.5671C143.654 58.4839 143.718 58.4109 143.793 58.3522L143.826 58.3261C143.902 58.2673 143.988 58.224 144.08 58.1986C144.172 58.1732 144.269 58.1662 144.363 58.1781C144.458 58.19 144.55 58.2204 144.633 58.2677C144.716 58.3151 144.789 58.3783 144.848 58.4539C144.894 58.5142 144.954 58.5637 145.022 58.5989C145.089 58.6342 145.164 58.6543 145.24 58.6581C145.317 58.6618 145.393 58.649 145.464 58.6205C145.535 58.592 145.598 58.5485 145.651 58.4931L147.538 56.4987C147.67 56.3586 147.853 56.277 148.046 56.2718C148.239 56.2665 148.426 56.338 148.566 56.4707L148.597 56.5002C148.666 56.566 148.722 56.6448 148.761 56.7322C148.8 56.8195 148.821 56.9137 148.824 57.0094C148.827 57.105 148.81 57.2002 148.776 57.2895C148.742 57.3789 148.69 57.4606 148.625 57.53L145.697 60.6245C145.629 60.6964 145.547 60.7536 145.457 60.7927C145.366 60.8318 145.268 60.852 145.169 60.852Z" fill="#E6E6E6"/>
<path d="M116.141 136.042C114.974 136.042 113.834 135.696 112.864 135.047C111.894 134.398 111.138 133.475 110.691 132.396C110.245 131.317 110.128 130.129 110.356 128.984C110.583 127.838 111.145 126.785 111.97 125.959C112.795 125.133 113.846 124.571 114.99 124.343C116.134 124.115 117.32 124.232 118.398 124.679C119.476 125.126 120.397 125.883 121.045 126.854C121.693 127.826 122.039 128.968 122.039 130.136C122.037 131.702 121.415 133.203 120.309 134.31C119.204 135.418 117.704 136.041 116.141 136.042ZM116.141 124.907C115.108 124.907 114.098 125.214 113.24 125.788C112.381 126.363 111.712 127.18 111.317 128.135C110.921 129.09 110.818 130.142 111.02 131.156C111.221 132.17 111.718 133.102 112.449 133.833C113.179 134.564 114.109 135.062 115.122 135.264C116.135 135.466 117.185 135.362 118.139 134.966C119.093 134.571 119.908 133.901 120.482 133.041C121.056 132.181 121.362 131.17 121.362 130.136C121.361 128.75 120.81 127.421 119.831 126.44C118.852 125.46 117.525 124.909 116.141 124.907Z" fill="#E6E6E6"/>
<path d="M115.724 132.361C115.713 132.361 115.701 132.36 115.689 132.36C115.584 132.355 115.482 132.327 115.389 132.279C115.296 132.23 115.214 132.162 115.15 132.079L114.221 130.883C114.162 130.808 114.119 130.721 114.093 130.629C114.068 130.537 114.061 130.441 114.073 130.346C114.085 130.251 114.115 130.159 114.162 130.076C114.21 129.993 114.273 129.92 114.348 129.861L114.382 129.835C114.457 129.776 114.543 129.733 114.635 129.707C114.728 129.682 114.824 129.675 114.919 129.687C115.013 129.699 115.105 129.729 115.188 129.777C115.271 129.824 115.344 129.887 115.403 129.963C115.45 130.023 115.509 130.072 115.577 130.108C115.645 130.143 115.719 130.163 115.796 130.167C115.872 130.171 115.948 130.158 116.019 130.129C116.09 130.101 116.154 130.057 116.206 130.002L118.093 128.007C118.226 127.867 118.408 127.786 118.601 127.781C118.794 127.775 118.981 127.847 119.121 127.979L119.152 128.009C119.222 128.075 119.277 128.154 119.316 128.241C119.355 128.328 119.377 128.423 119.379 128.518C119.382 128.614 119.365 128.709 119.331 128.798C119.297 128.888 119.246 128.969 119.18 129.039L116.252 132.133C116.184 132.205 116.103 132.262 116.012 132.302C115.921 132.341 115.823 132.361 115.724 132.361Z" fill="#E6E6E6"/>
<path d="M51.4975 56.3987C50.3309 56.3987 49.1905 56.0523 48.2205 55.4033C47.2506 54.7543 46.4945 53.8318 46.0481 52.7526C45.6017 51.6733 45.4849 50.4858 45.7125 49.34C45.94 48.1943 46.5018 47.1419 47.3267 46.3159C48.1516 45.4899 49.2026 44.9273 50.3468 44.6994C51.4909 44.4715 52.6769 44.5885 53.7547 45.0355C54.8325 45.4826 55.7537 46.2396 56.4018 47.2109C57.0499 48.1822 57.3958 49.3241 57.3958 50.4923C57.3941 52.0583 56.7721 53.5596 55.6663 54.6668C54.5605 55.7741 53.0613 56.397 51.4975 56.3987ZM51.4975 45.2638C50.4648 45.2638 49.4553 45.5704 48.5966 46.1449C47.7379 46.7195 47.0687 47.536 46.6735 48.4914C46.2783 49.4468 46.1749 50.4981 46.3763 51.5124C46.5778 52.5266 47.0751 53.4583 47.8054 54.1895C48.5356 54.9207 49.466 55.4187 50.4788 55.6204C51.4917 55.8222 52.5415 55.7186 53.4956 55.3229C54.4497 54.9272 55.2652 54.257 55.839 53.3972C56.4127 52.5373 56.7189 51.5264 56.7189 50.4923C56.7174 49.1061 56.1667 47.7771 55.1879 46.7969C54.209 45.8167 52.8818 45.2653 51.4975 45.2638Z" fill="#E6E6E6"/>
<path d="M51.0812 52.7182C51.0694 52.7182 51.0575 52.7178 51.0457 52.7173C50.9409 52.7122 50.8386 52.6845 50.7455 52.6361C50.6525 52.5877 50.571 52.5197 50.5067 52.4368L49.5775 51.2407C49.5189 51.1652 49.4756 51.0788 49.4503 50.9866C49.4249 50.8943 49.418 50.798 49.4298 50.7031C49.4416 50.6081 49.472 50.5165 49.5193 50.4333C49.5665 50.3501 49.6296 50.2771 49.705 50.2184L49.7385 50.1923C49.8139 50.1335 49.9001 50.0902 49.9923 50.0648C50.0844 50.0394 50.1806 50.0324 50.2755 50.0443C50.3703 50.0562 50.4619 50.0866 50.5449 50.134C50.628 50.1813 50.7009 50.2445 50.7596 50.3201C50.8065 50.3804 50.8659 50.4299 50.9337 50.4651C51.0015 50.5004 51.076 50.5206 51.1523 50.5243C51.2286 50.528 51.3048 50.5152 51.3757 50.4867C51.4466 50.4582 51.5105 50.4148 51.5631 50.3593L53.4496 48.3649C53.5824 48.2248 53.7653 48.1432 53.9581 48.138C54.1509 48.1327 54.3379 48.2043 54.4781 48.3369L54.509 48.3664C54.5784 48.4322 54.6342 48.511 54.6731 48.5984C54.712 48.6857 54.7334 48.7799 54.736 48.8756C54.7386 48.9712 54.7223 49.0664 54.6881 49.1557C54.6539 49.2451 54.6025 49.3268 54.5368 49.3962L51.6091 52.4907C51.5412 52.5626 51.4594 52.6198 51.3686 52.6589C51.2778 52.6981 51.18 52.7182 51.0812 52.7182Z" fill="#E6E6E6"/>
<path d="M98.7196 158.002C85.0421 158.002 69.3232 142.804 55.4158 150.025C13.308 171.889 19.1044 135.303 7.0072 121.696L7.40436 120.898C20.7522 132.883 37.4175 142.634 55.5987 149.097C72.0287 154.938 88.5819 157.644 103.463 156.93L103.489 157.889C101.917 157.965 100.327 158.003 98.7196 158.002Z" fill="#F2F2F2"/>
<path d="M79.9575 55.2433C81.5365 55.2433 82.8165 53.5246 82.8165 51.4044C82.8165 49.2842 81.5365 47.5654 79.9575 47.5654C78.3785 47.5654 77.0985 49.2842 77.0985 51.4044C77.0985 53.5246 78.3785 55.2433 79.9575 55.2433Z" fill="#E6E6E6"/>
<path d="M112.979 115.131C111.671 116.004 110.334 113.928 111.666 113.095C112.973 112.223 114.311 114.298 112.979 115.131Z" fill="#E6E6E6"/>
<path d="M105.455 45.2538C107.511 45.2538 109.178 43.5847 109.178 41.5258C109.178 39.4669 107.511 37.7979 105.455 37.7979C103.399 37.7979 101.732 39.4669 101.732 41.5258C101.732 43.5847 103.399 45.2538 105.455 45.2538Z" fill="#FF6584"/>
<path opacity="0.3" d="M118.476 61.9553L139.661 0L116.399 61.2136C116.284 61.3589 116.205 61.5296 116.169 61.7115C116.133 61.8933 116.141 62.0812 116.192 62.2595C116.243 62.4377 116.336 62.6012 116.462 62.7364C116.589 62.8717 116.746 62.9747 116.921 63.0369C117.095 63.0992 117.282 63.1189 117.465 63.0945C117.649 63.0701 117.824 63.0021 117.976 62.8964C118.128 62.7906 118.253 62.6501 118.34 62.4864C118.427 62.3228 118.474 62.1407 118.476 61.9553H118.476Z" fill="#F0F0F0"/>
<path d="M97.0934 137.435C99.0939 137.435 100.716 135.811 100.716 133.808C100.716 131.805 99.0939 130.181 97.0934 130.181C95.0929 130.181 93.4713 131.805 93.4713 133.808C93.4713 135.811 95.0929 137.435 97.0934 137.435Z" fill="#F2F2F2"/>
<path d="M62.0119 135.191C62.0119 135.191 52.982 141.079 55.3697 144.992C55.452 145.127 44.5835 159.501 44.5835 159.501L24.0662 158.197L23.3434 165.073L41.6093 170.371C41.6093 170.371 46.0778 173.658 49.5299 170.036C52.982 166.414 64.4805 155.322 64.4805 155.322L65.0351 177.716L59.2629 208.747L67.8814 208.2L76.27 177.068L79.3663 141.803L62.0119 135.191Z" fill="#2F2E41"/>
<path d="M68.444 99.8538L64.6467 102.735L60.3186 111.985L64.4805 117.645C64.4805 117.645 67.9813 123.721 62.3777 129.605C56.7741 135.488 52.4711 141.772 56.9563 141.548C61.4414 141.324 79.6068 150.575 79.7263 142.996C79.8458 135.416 80.0877 129.605 80.0877 129.605L84.8503 117.509C84.8503 117.509 87.6877 110.293 85.6956 108.133C83.7034 105.973 81.0361 103.213 81.0361 103.213L76.1855 98.3555H71.8057L68.444 99.8538Z" fill="#EC7E00"/>
<path d="M75.5325 82.0809C84.0513 86.9351 77.0578 99.7428 68.3802 95.1821C59.8616 90.3281 66.8551 77.5204 75.5325 82.0809Z" fill="#A0616A"/>
<path d="M80.0877 84.773C79.4908 85.5505 78.2438 85.1859 75.8016 85.7407C75.8069 84.9117 75.7113 84.0852 75.5168 83.2795C75.3351 84.2771 74.9369 85.2227 74.3503 86.0493C72.2297 86.2848 74.8293 92.7358 73.7435 97.4789C72.3445 87.4726 69.4021 90.0942 70.8886 92.0789C71.8402 93.3495 71.2058 97.1612 68.3509 95.2553C63.6404 97.4971 56.9312 86.3613 64.367 81.1387C64.2341 78.3158 67.3709 77.8699 69.3025 78.7378C73.9902 75.241 79.3458 79.7216 80.0877 84.773Z" fill="#2F2E41"/>
<path d="M58.2303 77.4712C56.3337 89.1481 46.168 75.3237 41.3881 86.8149C39.8853 90.9764 42.4638 93.9533 44.0948 97.4075C44.4671 100.246 40.7792 101.686 40.3929 104.299C40.2853 110.29 49.937 109.924 52.6352 106.144C55.4076 102.187 52.097 96.8791 53.7634 92.6323C56.1055 86.7362 65.6305 86.6924 66.4603 79.8328C64.8533 77.5411 60.532 74.9165 58.2303 77.4712Z" fill="#2F2E41"/>
<path d="M65.9134 78.6125C65.8513 78.6387 65.7893 78.6648 65.7338 78.6943H65.7305C65.6783 78.7204 65.626 78.7466 65.5738 78.776C65.5672 78.7793 65.564 78.7826 65.5574 78.7858C65.4889 78.7204 65.4203 78.655 65.3484 78.5896C65.3299 78.6961 65.3343 78.8054 65.3615 78.9101L65.3713 78.9493C65.4366 79.018 65.5052 79.0834 65.577 79.1521C65.6424 79.103 65.7044 79.0507 65.7697 79.0016C65.8089 78.969 65.8481 78.9362 65.8905 78.9035C65.8971 78.8185 65.9069 78.7204 65.9167 78.6125L65.9134 78.6125ZM67.8793 74.9762C66.4228 74.6427 65.9526 76.5491 65.8121 77.468C65.2831 74.1325 63.0821 75.1822 63.843 77.4582C64.0855 78.132 64.4672 78.7471 64.9631 79.2632C65.0317 79.3417 65.1068 79.4202 65.1852 79.4987C65.097 79.9565 65.5411 79.8388 66.142 79.4169C66.5857 79.101 66.996 78.7405 67.3666 78.3411C68.565 77.0821 69.499 75.398 67.8793 74.9762ZM67.925 76.8532C67.4757 77.4334 66.9715 77.9689 66.4196 78.4523C66.2465 78.6092 66.0701 78.7597 65.8905 78.9036C65.8873 78.933 65.8873 78.9591 65.884 78.982C65.8714 79.0138 65.8561 79.0444 65.8383 79.0736C65.6554 79.4039 65.4497 79.224 65.3713 78.9493C65.3648 78.9395 65.355 78.9297 65.3484 78.9199C65.0875 78.6499 64.8605 78.349 64.6725 78.0239C63.3237 75.6825 65.4954 74.09 65.3876 78.4621C65.3678 78.5022 65.3545 78.5453 65.3484 78.5896C65.3299 78.6961 65.3343 78.8054 65.3615 78.9101L65.3713 78.9493C65.4366 79.018 65.5052 79.0834 65.577 79.1521C65.6424 79.103 65.7044 79.0507 65.7697 79.0016C65.8089 78.969 65.8481 78.9362 65.8905 78.9036C65.8971 78.8185 65.9069 78.7204 65.9167 78.6125V78.6092C66.0016 77.7329 66.2334 76.1567 66.6612 75.7283C67.6017 75.0056 68.8198 75.7872 67.925 76.8532ZM65.9134 78.6125C65.8513 78.6387 65.7893 78.6648 65.7338 78.6943H65.7305C65.6783 78.7204 65.626 78.7466 65.5738 78.776C65.5672 78.7793 65.564 78.7826 65.5574 78.7858C65.4889 78.7204 65.4203 78.655 65.3484 78.5896C65.3299 78.6961 65.3343 78.8054 65.3615 78.9101L65.3713 78.9493C65.4366 79.018 65.5052 79.0834 65.577 79.1521C65.6424 79.103 65.7044 79.0507 65.7697 79.0016C65.8089 78.969 65.8481 78.9362 65.8905 78.9035C65.8971 78.8185 65.9069 78.7204 65.9167 78.6125L65.9134 78.6125Z" fill="#2F2E41"/>
<path d="M144.651 142.991L141.504 151.207L126.745 180.36L139.714 214.274L146.407 212.504L140.89 180.36L156.717 161.103L175.513 173.869C175.513 173.869 183.849 180.386 187.021 174.208C190.192 168.03 210.712 154.89 210.712 154.89L205.635 149.468L182.005 160.541L165.696 137.554L144.651 142.991Z" fill="#2F2E41"/>
<path d="M160.526 104.235L155.347 98.6633L146.463 97.4395L135.577 105.071L135.687 113.517L141.068 133.421C141.068 133.421 139.018 147.721 144.743 147.577C150.468 147.434 153.589 144.576 155.921 145.158C158.253 145.739 168.165 148.216 168.793 145.622C169.421 143.028 172.761 144.885 172.614 142.432C172.467 139.978 163.574 122.291 163.574 122.291L165.785 104.603L160.526 104.235Z" fill="#EC7E00"/>
<path d="M193.318 78.5867C193.365 79.0488 193.309 79.5155 193.156 79.9538C193.003 80.3921 192.755 80.7915 192.431 81.1237C192.107 81.456 191.715 81.713 191.281 81.8768C190.847 82.0406 190.382 82.1071 189.92 82.0716L178.009 104.753L174.812 99.8381L186.986 78.4313C187.097 77.6574 187.487 76.9511 188.084 76.4463C188.68 75.9415 189.44 75.6732 190.221 75.6924C191.001 75.7115 191.748 76.0167 192.319 76.5502C192.89 77.0836 193.245 77.8083 193.318 78.5867Z" fill="#FFB6B6"/>
<path d="M155.824 108.452C155.824 108.452 155.351 112.487 159.887 113.486C164.423 114.485 176.99 107.294 179.05 106.196C179.695 105.852 180.571 104.166 181.469 102.013C181.872 101.046 182.28 99.9854 182.673 98.9092C182.901 98.2864 183.992 98.1164 184.207 97.4988C184.42 96.8846 183.758 95.8226 183.951 95.2437C184.869 92.4959 185.519 90.316 185.519 90.316L182.512 84.6611C178.308 86.887 176.151 91.7899 174.565 97.4384L155.824 108.452Z" fill="#EC7E00"/>
<path d="M102.85 83.7954C102.921 84.2543 103.091 84.6923 103.349 85.0782C103.607 85.4642 103.946 85.7889 104.343 86.0293C104.74 86.2698 105.184 86.4202 105.645 86.47C106.107 86.5198 106.573 86.4678 107.012 86.3176L124.212 105.293L126.079 99.7328L108.943 82.0579C108.642 81.3364 108.087 80.7505 107.384 80.4111C106.68 80.0718 105.877 80.0027 105.126 80.2169C104.375 80.431 103.728 80.9136 103.309 81.5731C102.89 82.2327 102.726 83.0234 102.85 83.7954Z" fill="#FFB6B6"/>
<path d="M146.616 103.315C146.616 103.315 148.081 107.103 143.939 109.206C139.798 111.31 125.834 107.498 123.565 106.951C122.854 106.779 121.585 105.367 120.178 103.507C119.546 102.672 118.886 101.747 118.236 100.804C117.859 100.258 116.761 100.367 116.399 99.8225C116.038 99.2813 116.414 98.0871 116.083 97.575C114.507 95.1447 113.333 93.197 113.333 93.197L114.831 86.9688C119.458 88.0701 122.771 92.2766 125.718 97.3479L146.616 103.315Z" fill="#EC7E00"/>
<path d="M151.082 96.0219C155.75 96.0219 159.535 92.2322 159.535 87.5573C159.535 82.8825 155.75 79.0928 151.082 79.0928C146.413 79.0928 142.629 82.8825 142.629 87.5573C142.629 92.2322 146.413 96.0219 151.082 96.0219Z" fill="#FFB6B6"/>
<path d="M160.731 82.7112C159.842 81.3338 158.173 80.4157 156.556 80.6737C156.405 79.64 155.974 78.6674 155.31 77.8619C154.646 77.0564 153.773 76.4489 152.788 76.1055C151.803 75.762 150.742 75.6958 149.722 75.9141C148.702 76.1324 147.761 76.6268 147.002 77.3434C146.753 77.1674 146.462 77.059 146.158 77.0285C145.854 76.9981 145.548 77.0467 145.268 77.1697C144.712 77.4232 144.227 77.8125 143.86 78.3019C142.931 79.461 142.334 80.8504 142.132 82.3223C141.93 83.7942 142.13 85.2934 142.711 86.6604C142.514 85.9408 143.234 85.2637 143.962 85.1022C144.689 84.9407 145.453 85.0935 146.191 84.9884C147.136 84.8536 147.987 84.3042 148.934 84.1805C149.737 84.1282 150.543 84.2319 151.307 84.4859C152.071 84.7398 152.876 84.848 153.679 84.8049C154.477 84.7101 155.504 87.7357 155.49 89.8667C155.487 90.2706 155.57 90.7891 155.964 90.8748C156.45 90.9803 156.731 90.3095 157.193 90.1267C157.406 90.0656 157.634 90.0897 157.83 90.1938C158.025 90.2979 158.173 90.474 158.241 90.6849C158.3 90.8994 158.306 91.1247 158.26 91.342C158.213 91.5593 158.116 91.7625 157.975 91.9345C157.691 92.2755 157.354 92.5683 156.977 92.8017L157.167 92.9601C157.348 93.1512 157.589 93.2735 157.85 93.3059C158.111 93.3383 158.375 93.279 158.596 93.1379C159.033 92.8421 159.386 92.4393 159.623 91.9679C160.514 90.5872 161.152 89.0576 161.505 87.4518C161.803 85.839 161.62 84.0887 160.731 82.7112Z" fill="#2F2E41"/>
<path d="M223.267 116.095C212.364 124.365 190.669 121.752 183.937 135.917C163.553 178.804 146.114 146.135 128.266 142.602L128.102 141.726C145.969 143.209 165.133 140.907 183.523 135.067C200.142 129.79 214.969 121.939 226.401 112.373L227 113.122C225.793 114.132 224.549 115.124 223.267 116.095Z" fill="#F2F2F2"/>
<path d="M177.168 228.422C176.909 229.192 28.6443 229.192 28.3641 228.424C28.6235 227.652 176.888 227.652 177.168 228.422Z" fill="#CCCCCC"/>
</svg>
