<svg width="24" height="25" viewBox="0 0 24 25" fill="none" xmlns="http://www.w3.org/2000/svg">
<g clip-path="url(#clip0_8015_37314)">
<path d="M19 8.5H21C21.2652 8.5 21.5196 8.60536 21.7071 8.79289C21.8946 8.98043 22 9.23478 22 9.5V21.5C22 21.7652 21.8946 22.0196 21.7071 22.2071C21.5196 22.3946 21.2652 22.5 21 22.5H13C12.7348 22.5 12.4804 22.3946 12.2929 22.2071C12.1054 22.0196 12 21.7652 12 21.5V20.5H4C3.73478 20.5 3.48043 20.3946 3.29289 20.2071C3.10536 20.0196 3 19.7652 3 19.5V3.5C3 3.23478 3.10536 2.98043 3.29289 2.79289C3.48043 2.60536 3.73478 2.5 4 2.5H18C18.2652 2.5 18.5196 2.60536 18.7071 2.79289C18.8946 2.98043 19 3.23478 19 3.5V8.5ZM17 8.5V4.5H5V18.5H12V9.5C12 9.23478 12.1054 8.98043 12.2929 8.79289C12.4804 8.60536 12.7348 8.5 13 8.5H17ZM14 10.5V20.5H20V10.5H14Z" fill="#FF9416"/>
</g>
<defs>
<clipPath id="clip0_8015_37314">
<rect width="24" height="24" fill="white" transform="translate(0 0.5)"/>
</clipPath>
</defs>
</svg>
