<svg width="24" height="24" viewBox="0 0 24 24" fill="none" xmlns="http://www.w3.org/2000/svg">
    <path d="M11 14H9V17H11V14Z" fill="#999999" />
    <path fill-rule="evenodd" clip-rule="evenodd"
        d="M11.321 2.26589C11.7042 1.91137 12.2958 1.91137 12.679 2.26589L20.679 9.66589C20.8837 9.85516 21 10.1213 21 10.4V12C21 12.5523 20.5523 13 20 13H19V20C19 20.5523 18.5523 21 18 21H6C5.44772 21 5 20.5523 5 20V13H4C3.73477 13 3.48044 12.8946 3.29291 12.7071C3.10535 12.5196 3 12.2652 3 12V10.4C3 10.1213 3.11633 9.85516 3.32095 9.66589L11.321 2.26589ZM5 11H7V19H13V13H15V19H17V11H19V10.8372L12 4.36221L5 10.8372V11Z"
        fill="#999999" />
</svg>
