<svg width="18" height="18" viewBox="0 0 18 18" fill="none" xmlns="http://www.w3.org/2000/svg">
    <path
        d="M8.25 2.25C11.5637 2.25 14.25 4.93629 14.25 8.25C14.25 9.63615 13.7799 10.9125 12.9905 11.9284L15.9053 14.8447L14.8447 15.9053L11.9284 12.9905C10.9125 13.7799 9.63615 14.25 8.25 14.25C4.93629 14.25 2.25 11.5637 2.25 8.25C2.25 4.93629 4.93629 2.25 8.25 2.25ZM8.25 3.75C5.76472 3.75 3.75 5.76472 3.75 8.25C3.75 10.7353 5.76472 12.75 8.25 12.75C10.7353 12.75 12.75 10.7353 12.75 8.25C12.75 5.76472 10.7353 3.75 8.25 3.75Z"
        fill="#AAABAD" />
</svg>
