<svg width="24" height="24" viewBox="0 0 24 24" fill="none" xmlns="http://www.w3.org/2000/svg">
<path d="M19.4999 12C19.4999 11.8 19.4999 11.6 19.4999 11.5L22.0999 9.6L21.9999 8.9C21.9999 8.8 21.7999 7.9 21.0999 6.7C20.3999 5.5 19.7999 5 19.6999 4.9L19.1999 4.5L16.1999 5.8C15.8999 5.6 15.5999 5.4 15.2999 5.3L14.8999 2L14.2999 1.8C14.1999 1.8 13.2999 1.5 11.9999 1.5C10.6999 1.5 9.7999 1.8 9.6999 1.8L9.0999 2L8.6999 5.3C8.3999 5.4 8.0999 5.6 7.7999 5.8L4.7999 4.5L4.2999 4.9C4.1999 5 3.5999 5.6 2.8999 6.8C2.2999 7.9 1.9999 8.8 1.9999 8.9L1.8999 9.5L4.4999 11.4C4.4999 11.6 4.4999 11.8 4.4999 11.9C4.4999 12 4.4999 12.3 4.4999 12.4L1.8999 14.3L1.9999 15.1C1.9999 15.2 2.1999 16.1 2.8999 17.3C3.5999 18.4 4.1999 19.1 4.2999 19.1L4.7999 19.5L7.7999 18.2C8.0999 18.4 8.3999 18.6 8.6999 18.7L9.0999 22L9.6999 22.2C9.7999 22.2 10.6999 22.5 11.9999 22.5C13.2999 22.5 14.1999 22.2 14.2999 22.2L14.8999 22L15.2999 18.8C15.5999 18.6 15.8999 18.5 16.1999 18.3L19.1999 19.6L19.6999 19.2C19.7999 19.1 20.4999 18.5 21.0999 17.4C21.6999 16.3 21.9999 15.4 21.9999 15.2L22.0999 14.6L19.4999 12.7C19.4999 12.4 19.4999 12.2 19.4999 12ZM19.7999 15.3C19.6999 15.6 19.4999 15.9 19.2999 16.3C19.0999 16.7 18.8999 17 18.6999 17.2L15.8999 16L15.3999 16.4C14.9999 16.8 14.4999 17 13.8999 17.2L13.2999 17.4L12.9999 20.5C12.3999 20.6 11.3999 20.6 10.7999 20.5L10.4999 17.4L9.9999 17.1C9.4999 16.9 8.9999 16.6 8.4999 16.3L7.9999 15.9L5.1999 17.1C4.9999 16.9 4.7999 16.6 4.5999 16.2C4.3999 15.8 4.1999 15.5 4.0999 15.2L6.5999 13.4L6.4999 12.8C6.4999 12.5 6.3999 12.2 6.3999 12C6.3999 11.8 6.3999 11.4 6.4999 11.2L6.5999 10.6L4.1999 8.7C4.2999 8.4 4.4999 8.1 4.6999 7.7C4.8999 7.3 5.0999 7 5.2999 6.8L8.0999 8L8.5999 7.6C8.9999 7.4 9.4999 7.1 9.9999 6.9L10.5999 6.7L10.8999 3.6C11.4999 3.5 12.4999 3.5 13.0999 3.6L13.3999 6.7L13.9999 6.9C14.4999 7.1 14.9999 7.4 15.4999 7.7L15.9999 8.1L18.7999 6.9C18.9999 7.1 19.1999 7.4 19.3999 7.8C19.5999 8.2 19.7999 8.5 19.8999 8.8L17.3999 10.6L17.4999 11.2C17.4999 11.5 17.5999 11.8 17.5999 12C17.5999 12.2 17.5999 12.6 17.4999 12.8L17.3999 13.4L19.7999 15.3Z" fill="#2B2D33"/>
<path d="M11.9999 14C13.1045 14 13.9999 13.1046 13.9999 12C13.9999 10.8954 13.1045 10 11.9999 10C10.8953 10 9.9999 10.8954 9.9999 12C9.9999 13.1046 10.8953 14 11.9999 14Z" fill="#2B2D33"/>
</svg>
