<svg width="14" height="14" viewBox="0 0 14 14" fill="none" xmlns="http://www.w3.org/2000/svg">
<path fill-rule="evenodd" clip-rule="evenodd" d="M7.00002 1.1665C7.233 1.1665 7.44364 1.30513 7.53579 1.51911L8.97601 4.86346L12.6017 5.19973C12.8337 5.22125 13.0306 5.37874 13.1026 5.60031C13.1746 5.82189 13.1079 6.06505 12.9328 6.21882L10.1972 8.62201L10.9978 12.1742C11.0491 12.4015 10.9601 12.6374 10.7716 12.7744C10.5832 12.9113 10.3313 12.923 10.1309 12.804L7.00002 10.9449L3.8691 12.804C3.66878 12.923 3.41688 12.9113 3.2284 12.7744C3.03992 12.6374 2.95099 12.4015 3.00222 12.1742L3.80281 8.62201L1.0672 6.21882C0.892168 6.06505 0.825415 5.82189 0.897409 5.60031C0.969404 5.37874 1.16634 5.22125 1.39832 5.19973L5.02403 4.86346L6.46426 1.51911C6.55641 1.30513 6.76704 1.1665 7.00002 1.1665ZM7.00002 3.22466L5.95856 5.64303C5.87411 5.83913 5.68927 5.97343 5.47667 5.99315L2.85483 6.23632L4.83301 7.97412C4.99342 8.11504 5.06402 8.33233 5.01708 8.54062L4.43815 11.1093L6.7022 9.76493C6.88578 9.65592 7.11426 9.65592 7.29785 9.76493L9.56189 11.1093L8.98296 8.54062C8.93602 8.33233 9.00662 8.11504 9.16703 7.97412L11.1452 6.23632L8.52337 5.99315C8.31077 5.97343 8.12593 5.83913 8.04148 5.64303L7.00002 3.22466Z" fill="#FFBB3D"/>
</svg>
