<svg width="24" height="25" viewBox="0 0 24 25" fill="none" xmlns="http://www.w3.org/2000/svg">
<path d="M18 11.5H16V13.5H18V11.5Z" fill="#FF9416"/>
<path fill-rule="evenodd" clip-rule="evenodd" d="M20 19.5V16.5H21C21.5523 16.5 22 16.0523 22 15.5V9.5C22 8.94772 21.5523 8.5 21 8.5H20V5.5C20 4.94772 19.5523 4.5 19 4.5H3C2.44772 4.5 2 4.94772 2 5.5V19.5C2 20.0523 2.44772 20.5 3 20.5H19C19.5523 20.5 20 20.0523 20 19.5ZM18 18.5V16.5H15C12.7909 16.5 11 14.7091 11 12.5C11 10.2909 12.7909 8.5 15 8.5H18V6.5H4V18.5H18ZM15 10.5C13.8954 10.5 13 11.3954 13 12.5C13 13.6046 13.8954 14.5 15 14.5H20V10.5H15Z" fill="#FF9416"/>
</svg>
