<svg width="32" height="32" viewBox="0 0 32 32" fill="none" xmlns="http://www.w3.org/2000/svg">
<g clip-path="url(#clip0_8019_37605)">
<path d="M15.9998 29.3334C8.63584 29.3334 2.6665 23.364 2.6665 16C2.6665 8.63602 8.63584 2.66669 15.9998 2.66669C23.3638 2.66669 29.3332 8.63602 29.3332 16C29.3332 23.364 23.3638 29.3334 15.9998 29.3334ZM12.9465 26.2227C11.6311 23.4324 10.869 20.4136 10.7025 17.3334H5.41584C5.67529 19.3852 6.52507 21.3176 7.86193 22.8956C9.19879 24.4737 10.9652 25.6295 12.9465 26.2227ZM13.3732 17.3334C13.5745 20.5854 14.5038 23.64 15.9998 26.336C17.5363 23.5688 18.4338 20.4927 18.6265 17.3334H13.3732ZM26.5838 17.3334H21.2972C21.1307 20.4136 20.3686 23.4324 19.0532 26.2227C21.0345 25.6295 22.8009 24.4737 24.1377 22.8956C25.4746 21.3176 26.3244 19.3852 26.5838 17.3334ZM5.41584 14.6667H10.7025C10.869 11.5864 11.6311 8.5676 12.9465 5.77735C10.9652 6.37053 9.19879 7.52636 7.86193 9.10441C6.52507 10.6825 5.67529 12.6148 5.41584 14.6667ZM13.3745 14.6667H18.6252C18.4328 11.5075 17.5358 8.4314 15.9998 5.66402C14.4634 8.43129 13.5659 11.5074 13.3732 14.6667H13.3745ZM19.0532 5.77735C20.3686 8.5676 21.1307 11.5864 21.2972 14.6667H26.5838C26.3244 12.6148 25.4746 10.6825 24.1377 9.10441C22.8009 7.52636 21.0345 6.37053 19.0532 5.77735Z" fill="black"/>
</g>
<defs>
<clipPath id="clip0_8019_37605">
<rect width="32" height="32" fill="white"/>
</clipPath>
</defs>
</svg>
